<?xml version="1.0" encoding="UTF-8" standalone="no"?>
<svg
   id="a"
   width="661"
   height="583"
   viewBox="0 0 660.99999 582.99999"
   version="1.1"
   sodipodi:docname="Man-with-Gadgets.svg"
   inkscape:version="1.3.2 (091e20e, 2023-11-25, custom)"
   xmlns:inkscape="http://www.inkscape.org/namespaces/inkscape"
   xmlns:sodipodi="http://sodipodi.sourceforge.net/DTD/sodipodi-0.dtd"
   xmlns="http://www.w3.org/2000/svg"
   xmlns:svg="http://www.w3.org/2000/svg">
  <defs
     id="defs116" />
  <sodipodi:namedview
     id="namedview116"
     pagecolor="#505050"
     bordercolor="#eeeeee"
     borderopacity="1"
     inkscape:showpageshadow="0"
     inkscape:pageopacity="0"
     inkscape:pagecheckerboard="0"
     inkscape:deskcolor="#505050"
     inkscape:zoom="1.1042321"
     inkscape:cx="424.72954"
     inkscape:cy="303.83105"
     inkscape:window-width="1920"
     inkscape:window-height="1009"
     inkscape:window-x="-8"
     inkscape:window-y="-8"
     inkscape:window-maximized="1"
     inkscape:current-layer="a" />
  <g
     id="g114"
     transform="translate(-102,-50)">
    <g
       id="g2">
      <path
         d="m 177.99,254.8 c 0,-7.18 -7,-11 -13,-10 -3.48,0.58 -6.19,2.13 -8.46,4.43 -0.25,0.25 -0.66,0.19 -0.83,-0.12 -0.96,-1.84 -2.79,-1.99 -4.11,-1.53 -0.35,0.12 -0.71,-0.16 -0.67,-0.53 0.04,-0.41 0.07,-0.83 0.07,-1.25 0,-7.31 -6.04,-13.21 -13.4,-12.99 -6.71,0.2 -12.28,5.7 -12.59,12.4 -0.08,1.75 0.2,3.42 0.75,4.96 0.31,0.85 0.04,1.78 -0.67,2.33 -3.28,2.52 -5.33,6.55 -5.07,11.07 0.37,6.49 5.69,11.83 12.19,12.21 6.84,0.41 12.61,-4.49 13.62,-10.96 0.05,-0.31 0.46,-0.38 0.61,-0.1 2.15,4.2 6.52,7.08 11.57,7.08 3.81,0 7.23,-1.65 9.61,-4.26 5.93,-1.21 10.39,-6.45 10.39,-12.74 z"
         fill="#57befa"
         id="path1" />
      <path
         d="m 132.99,276.3 c -0.27,0 -0.55,0 -0.83,-0.02 -6.71,-0.4 -12.27,-5.97 -12.65,-12.68 -0.26,-4.47 1.71,-8.76 5.26,-11.49 0.54,-0.42 0.74,-1.11 0.51,-1.77 -0.6,-1.66 -0.86,-3.39 -0.78,-5.15 0.32,-7.01 6.06,-12.67 13.07,-12.88 3.7,-0.11 7.17,1.24 9.82,3.81 2.64,2.57 4.1,6.01 4.1,9.69 0,0.42 -0.02,0.85 -0.07,1.3 1.49,-0.51 3.61,-0.36 4.72,1.78 2.51,-2.51 5.37,-4 8.76,-4.57 3.51,-0.59 7.34,0.44 9.99,2.68 1.64,1.39 3.6,3.87 3.6,7.81 0,6.34 -4.46,11.86 -10.64,13.19 -2.55,2.74 -6.14,4.31 -9.86,4.31 -4.91,0 -9.37,-2.63 -11.77,-6.89 -1.24,6.36 -6.77,10.89 -13.23,10.89 z m 5,-43 c -0.13,0 -0.26,0 -0.39,0 -6.49,0.19 -11.81,5.43 -12.1,11.92 -0.07,1.63 0.17,3.23 0.72,4.77 0.38,1.06 0.04,2.22 -0.84,2.9 -3.29,2.53 -5.11,6.5 -4.87,10.64 0.36,6.21 5.5,11.37 11.72,11.74 6.48,0.38 12.1,-4.14 13.1,-10.53 0.06,-0.35 0.33,-0.63 0.68,-0.69 0.35,-0.05 0.7,0.12 0.86,0.44 2.15,4.2 6.41,6.8 11.12,6.8 3.5,0 6.86,-1.49 9.24,-4.1 l 0.11,-0.12 0.16,-0.03 c 5.79,-1.18 9.99,-6.33 9.99,-12.25 0,-3.56 -1.76,-5.8 -3.24,-7.05 -2.43,-2.05 -5.94,-3 -9.18,-2.46 -3.18,0.53 -5.86,1.93 -8.19,4.29 -0.23,0.24 -0.55,0.34 -0.88,0.29 -0.32,-0.05 -0.6,-0.25 -0.75,-0.54 -0.82,-1.57 -2.34,-1.69 -3.5,-1.29 -0.33,0.12 -0.68,0.06 -0.96,-0.16 -0.27,-0.22 -0.41,-0.55 -0.38,-0.9 0.04,-0.39 0.07,-0.79 0.07,-1.2 0,-3.41 -1.35,-6.6 -3.8,-8.97 -2.35,-2.28 -5.43,-3.53 -8.7,-3.53 z"
         fill="#231f20"
         id="path2" />
    </g>
    <path
       d="m 249.18,508.87 c -0.16,0 -0.32,-0.08 -0.42,-0.22 L 129.57,332.08 c -0.15,-0.23 -0.09,-0.54 0.13,-0.69 0.23,-0.15 0.54,-0.09 0.69,0.13 l 119.19,176.57 c 0.15,0.23 0.09,0.54 -0.13,0.69 -0.09,0.06 -0.18,0.09 -0.28,0.09 z"
       fill="#231f20"
       id="path3" />
    <path
       d="m 129.83,508.34 c -0.1,0 -0.19,-0.03 -0.28,-0.08 -0.23,-0.15 -0.29,-0.47 -0.14,-0.69 L 248.56,330.53 c 0.15,-0.23 0.46,-0.29 0.69,-0.14 0.23,0.15 0.29,0.47 0.14,0.69 L 130.24,508.12 c -0.1,0.14 -0.25,0.22 -0.42,0.22 z"
       fill="#231f20"
       id="path4" />
    <g
       id="g5">
      <polygon
         points="130.13,325.3 120.24,325.84 120.24,613.85 260.14,613.85 260.14,325.3 248.84,325.3 248.84,600.88 130.13,600.88 "
         fill="#ffffff"
         id="polygon4" />
      <path
         d="M 260.64,614.35 H 119.74 V 325.37 l 10.88,-0.6 v 275.6 H 248.33 V 324.8 h 12.31 z m -139.9,-1 h 138.9 V 325.8 H 249.33 V 601.38 H 129.62 V 325.83 l -8.88,0.49 z"
         fill="#231f20"
         id="path5" />
    </g>
    <g
       id="g7">
      <path
         d="m 159.99,53.21 20.8,206.57 c 0.12,1.23 1.17,2.17 2.41,2.17 l 266.32,-1.4 -26.67,-203.52 c -0.1,-0.8 -0.78,-1.4 -1.59,-1.42 L 161.64,51.42 c -0.97,-0.02 -1.74,0.82 -1.65,1.79 z"
         fill="#000000"
         id="path6" />
      <path
         d="m 183.18,262.45 c -1.5,0 -2.74,-1.12 -2.89,-2.62 L 159.49,53.26 c -0.06,-0.6 0.14,-1.21 0.55,-1.65 0.41,-0.45 0.99,-0.7 1.6,-0.69 l 259.62,4.19 c 1.05,0.02 1.94,0.81 2.08,1.85 l 26.74,204.08 -266.89,1.4 h -0.02 z M 161.61,51.92 c -0.32,0 -0.61,0.13 -0.83,0.36 -0.22,0.24 -0.32,0.55 -0.29,0.88 l 20.8,206.57 c 0.1,0.98 0.91,1.72 1.9,1.72 h 0.01 l 265.76,-1.4 -26.59,-202.96 c -0.07,-0.55 -0.54,-0.97 -1.1,-0.98 L 161.65,51.92 h -0.02 z"
         fill="#231f20"
         id="path7" />
    </g>
    <g
       id="g9">
      <path
         d="m 167.05,58.86 17.97,176.91 c 0.12,1.23 1.16,2.16 2.39,2.16 H 438.2 L 417.17,61.28 c -0.1,-0.81 -0.78,-1.43 -1.6,-1.44 L 168.68,57.05 c -0.97,-0.01 -1.74,0.83 -1.64,1.79 z"
         fill="#ffffff"
         id="path8" />
      <path
         d="M 438.77,238.43 H 187.42 c -1.5,0 -2.74,-1.12 -2.89,-2.61 L 166.56,58.9 c -0.06,-0.6 0.14,-1.2 0.55,-1.65 0.41,-0.45 0.95,-0.7 1.59,-0.69 l 246.89,2.79 c 1.06,0.01 1.96,0.82 2.09,1.88 l 21.1,177.2 z M 167.55,58.81 185.52,235.72 c 0.1,0.98 0.92,1.71 1.9,1.71 H 437.65 L 416.69,61.34 c -0.07,-0.56 -0.54,-0.99 -1.11,-0.99 L 168.69,57.56 c -0.3,0 -0.62,0.13 -0.85,0.37 -0.22,0.24 -0.32,0.55 -0.29,0.88 z"
         fill="#231f20"
         id="path9" />
    </g>
    <path
       d="m 241.77,70.26 h -33.92 c -0.28,0 -0.5,-0.22 -0.5,-0.5 0,-0.28 0.22,-0.5 0.5,-0.5 h 33.92 c 0.28,0 0.5,0.22 0.5,0.5 0,0.28 -0.22,0.5 -0.5,0.5 z"
       fill="#231f20"
       id="path10" />
    <path
       d="m 255.9,88.63 h -32.5 c -0.28,0 -0.5,-0.22 -0.5,-0.5 0,-0.28 0.22,-0.5 0.5,-0.5 h 32.5 c 0.28,0 0.5,0.22 0.5,0.5 0,0.28 -0.22,0.5 -0.5,0.5 z"
       fill="#231f20"
       id="path11" />
    <path
       d="m 349.17,88.63 h -69.25 c -0.28,0 -0.5,-0.22 -0.5,-0.5 0,-0.28 0.22,-0.5 0.5,-0.5 h 69.25 c 0.28,0 0.5,0.22 0.5,0.5 0,0.28 -0.22,0.5 -0.5,0.5 z"
       fill="#231f20"
       id="path12" />
    <path
       d="M 247.42,109.83 H 223.4 c -0.28,0 -0.5,-0.22 -0.5,-0.5 0,-0.28 0.22,-0.5 0.5,-0.5 h 24.02 c 0.28,0 0.5,0.22 0.5,0.5 0,0.28 -0.22,0.5 -0.5,0.5 z"
       fill="#231f20"
       id="path13" />
    <path
       d="m 329.39,109.83 h -62.18 c -0.28,0 -0.5,-0.22 -0.5,-0.5 0,-0.28 0.22,-0.5 0.5,-0.5 h 62.18 c 0.28,0 0.5,0.22 0.5,0.5 0,0.28 -0.22,0.5 -0.5,0.5 z"
       fill="#231f20"
       id="path14" />
    <path
       d="m 248.84,128.2 h -33.92 c -0.28,0 -0.5,-0.22 -0.5,-0.5 0,-0.28 0.22,-0.5 0.5,-0.5 h 33.92 c 0.28,0 0.5,0.22 0.5,0.5 0,0.28 -0.22,0.5 -0.5,0.5 z"
       fill="#231f20"
       id="path15" />
    <path
       d="m 302.54,147.99 h -84.79 c -0.28,0 -0.5,-0.22 -0.5,-0.5 0,-0.28 0.22,-0.5 0.5,-0.5 h 84.79 c 0.28,0 0.5,0.22 0.5,0.5 0,0.28 -0.22,0.5 -0.5,0.5 z"
       fill="#231f20"
       id="path16" />
    <path
       d="m 353.41,147.99 h -32.5 c -0.28,0 -0.5,-0.22 -0.5,-0.5 0,-0.28 0.22,-0.5 0.5,-0.5 h 32.5 c 0.28,0 0.5,0.22 0.5,0.5 0,0.28 -0.22,0.5 -0.5,0.5 z"
       fill="#231f20"
       id="path17" />
    <path
       d="m 244.6,169.19 h -25.44 c -0.28,0 -0.5,-0.22 -0.5,-0.5 0,-0.28 0.22,-0.5 0.5,-0.5 h 25.44 c 0.28,0 0.5,0.22 0.5,0.5 0,0.28 -0.22,0.5 -0.5,0.5 z"
       fill="#231f20"
       id="path18" />
    <path
       d="m 311.02,187.56 h -76.31 c -0.28,0 -0.5,-0.22 -0.5,-0.5 0,-0.28 0.22,-0.5 0.5,-0.5 h 76.31 c 0.28,0 0.5,0.22 0.5,0.5 0,0.28 -0.22,0.5 -0.5,0.5 z"
       fill="#231f20"
       id="path19" />
    <path
       d="M 340.7,207.34 H 237.54 c -0.28,0 -0.5,-0.22 -0.5,-0.5 0,-0.28 0.22,-0.5 0.5,-0.5 H 340.7 c 0.28,0 0.5,0.22 0.5,0.5 0,0.28 -0.22,0.5 -0.5,0.5 z"
       fill="#231f20"
       id="path20" />
    <path
       d="m 275.69,225.72 h -49.46 c -0.28,0 -0.5,-0.22 -0.5,-0.5 0,-0.28 0.22,-0.5 0.5,-0.5 h 49.46 c 0.28,0 0.5,0.22 0.5,0.5 0,0.28 -0.22,0.5 -0.5,0.5 z"
       fill="#231f20"
       id="path21" />
    <path
       d="M 412.77,71.68 H 373.2 c -0.28,0 -0.5,-0.22 -0.5,-0.5 0,-0.28 0.22,-0.5 0.5,-0.5 h 39.57 c 0.28,0 0.5,0.22 0.5,0.5 0,0.28 -0.22,0.5 -0.5,0.5 z"
       fill="#231f20"
       id="path22" />
    <path
       d="m 388.74,78.74 h -21.2 c -0.28,0 -0.5,-0.22 -0.5,-0.5 0,-0.28 0.22,-0.5 0.5,-0.5 h 21.2 c 0.28,0 0.5,0.22 0.5,0.5 0,0.28 -0.22,0.5 -0.5,0.5 z"
       fill="#231f20"
       id="path23" />
    <path
       d="m 415.59,88.63 h -39.57 c -0.28,0 -0.5,-0.22 -0.5,-0.5 0,-0.28 0.22,-0.5 0.5,-0.5 h 39.57 c 0.28,0 0.5,0.22 0.5,0.5 0,0.28 -0.22,0.5 -0.5,0.5 z"
       fill="#231f20"
       id="path24" />
    <path
       d="m 388.74,95.7 h -16.96 c -0.28,0 -0.5,-0.22 -0.5,-0.5 0,-0.28 0.22,-0.5 0.5,-0.5 h 16.96 c 0.28,0 0.5,0.22 0.5,0.5 0,0.28 -0.22,0.5 -0.5,0.5 z"
       fill="#231f20"
       id="path25" />
    <path
       d="m 388.74,111.25 h -11.31 c -0.28,0 -0.5,-0.22 -0.5,-0.5 0,-0.28 0.22,-0.5 0.5,-0.5 h 11.31 c 0.28,0 0.5,0.22 0.5,0.5 0,0.28 -0.22,0.5 -0.5,0.5 z"
       fill="#231f20"
       id="path26" />
    <path
       d="m 416.3,111.25 h -18.37 c -0.28,0 -0.5,-0.22 -0.5,-0.5 0,-0.28 0.22,-0.5 0.5,-0.5 h 18.37 c 0.28,0 0.5,0.22 0.5,0.5 0,0.28 -0.22,0.5 -0.5,0.5 z"
       fill="#231f20"
       id="path27" />
    <path
       d="m 390.16,118.31 h -11.31 c -0.28,0 -0.5,-0.22 -0.5,-0.5 0,-0.28 0.22,-0.5 0.5,-0.5 h 11.31 c 0.28,0 0.5,0.22 0.5,0.5 0,0.28 -0.22,0.5 -0.5,0.5 z"
       fill="#231f20"
       id="path28" />
    <path
       d="m 417.71,118.31 h -18.37 c -0.28,0 -0.5,-0.22 -0.5,-0.5 0,-0.28 0.22,-0.5 0.5,-0.5 h 18.37 c 0.28,0 0.5,0.22 0.5,0.5 0,0.28 -0.22,0.5 -0.5,0.5 z"
       fill="#231f20"
       id="path29" />
    <path
       d="m 406.41,133.86 h -32.5 c -0.28,0 -0.5,-0.22 -0.5,-0.5 0,-0.28 0.22,-0.5 0.5,-0.5 h 32.5 c 0.28,0 0.5,0.22 0.5,0.5 0,0.28 -0.22,0.5 -0.5,0.5 z"
       fill="#231f20"
       id="path30" />
    <g
       id="g31">
      <polygon
         points="449.51,96.61 418.99,96.8 422.66,124.88 452.34,124.88 "
         fill="#57befa"
         id="polygon30" />
      <path
         d="m 452.89,125.38 h -30.67 l -3.81,-29.08 31.55,-0.19 z m -29.79,-1 h 28.69 l -2.73,-27.26 -29.51,0.18 z"
         fill="#231f20"
         id="path31" />
    </g>
    <g
       id="g32">
      <polygon
         points="456.58,136.18 425.99,135.8 429.73,164.45 460.99,164.8 "
         fill="#ffffff"
         id="polygon31" />
      <path
         d="m 461.57,165.31 -32.28,-0.36 -3.87,-29.65 31.59,0.4 4.56,29.62 z m -31.4,-1.35 30.23,0.34 -4.25,-27.61 -29.59,-0.37 3.61,27.65 z"
         fill="#231f20"
         id="path32" />
    </g>
    <path
       d="m 383.84,141.15 h -9.89 c -0.28,0 -0.5,-0.22 -0.5,-0.5 0,-0.28 0.22,-0.5 0.5,-0.5 h 9.89 c 0.28,0 0.5,0.22 0.5,0.5 0,0.28 -0.22,0.5 -0.5,0.5 z"
       fill="#231f20"
       id="path33" />
    <path
       d="M 409.28,148.22 H 379.6 c -0.28,0 -0.5,-0.22 -0.5,-0.5 0,-0.28 0.22,-0.5 0.5,-0.5 h 29.68 c 0.28,0 0.5,0.22 0.5,0.5 0,0.28 -0.22,0.5 -0.5,0.5 z"
       fill="#231f20"
       id="path34" />
    <path
       d="m 422,156.69 h -39.57 c -0.28,0 -0.5,-0.22 -0.5,-0.5 0,-0.28 0.22,-0.5 0.5,-0.5 H 422 c 0.28,0 0.5,0.22 0.5,0.5 0,0.28 -0.22,0.5 -0.5,0.5 z"
       fill="#231f20"
       id="path35" />
    <path
       d="m 396.56,163.76 h -18.37 c -0.28,0 -0.5,-0.22 -0.5,-0.5 0,-0.28 0.22,-0.5 0.5,-0.5 h 18.37 c 0.28,0 0.5,0.22 0.5,0.5 0,0.28 -0.22,0.5 -0.5,0.5 z"
       fill="#231f20"
       id="path36" />
    <path
       d="m 397.97,170.83 h -19.78 c -0.28,0 -0.5,-0.22 -0.5,-0.5 0,-0.28 0.22,-0.5 0.5,-0.5 h 19.78 c 0.28,0 0.5,0.22 0.5,0.5 0,0.28 -0.22,0.5 -0.5,0.5 z"
       fill="#231f20"
       id="path37" />
    <path
       d="m 388.08,177.89 h -9.89 c -0.28,0 -0.5,-0.22 -0.5,-0.5 0,-0.28 0.22,-0.5 0.5,-0.5 h 9.89 c 0.28,0 0.5,0.22 0.5,0.5 0,0.28 -0.22,0.5 -0.5,0.5 z"
       fill="#231f20"
       id="path38" />
    <path
       d="m 399.39,184.96 h -15.55 c -0.28,0 -0.5,-0.22 -0.5,-0.5 0,-0.28 0.22,-0.5 0.5,-0.5 h 15.55 c 0.28,0 0.5,0.22 0.5,0.5 0,0.28 -0.22,0.5 -0.5,0.5 z"
       fill="#231f20"
       id="path39" />
    <path
       d="m 424.82,184.96 h -19.78 c -0.28,0 -0.5,-0.22 -0.5,-0.5 0,-0.28 0.22,-0.5 0.5,-0.5 h 19.78 c 0.28,0 0.5,0.22 0.5,0.5 0,0.28 -0.22,0.5 -0.5,0.5 z"
       fill="#231f20"
       id="path40" />
    <path
       d="m 396.56,193.44 h -11.31 c -0.28,0 -0.5,-0.22 -0.5,-0.5 0,-0.28 0.22,-0.5 0.5,-0.5 h 11.31 c 0.28,0 0.5,0.22 0.5,0.5 0,0.28 -0.22,0.5 -0.5,0.5 z"
       fill="#231f20"
       id="path41" />
    <path
       d="m 424.82,193.44 h -22.61 c -0.28,0 -0.5,-0.22 -0.5,-0.5 0,-0.28 0.22,-0.5 0.5,-0.5 h 22.61 c 0.28,0 0.5,0.22 0.5,0.5 0,0.28 -0.22,0.5 -0.5,0.5 z"
       fill="#231f20"
       id="path42" />
    <path
       d="m 426.24,206.16 h -43.81 c -0.28,0 -0.5,-0.22 -0.5,-0.5 0,-0.28 0.22,-0.5 0.5,-0.5 h 43.81 c 0.28,0 0.5,0.22 0.5,0.5 0,0.28 -0.22,0.5 -0.5,0.5 z"
       fill="#231f20"
       id="path43" />
    <path
       d="m 392.32,216.05 h -8.48 c -0.28,0 -0.5,-0.22 -0.5,-0.5 0,-0.28 0.22,-0.5 0.5,-0.5 h 8.48 c 0.28,0 0.5,0.22 0.5,0.5 0,0.28 -0.22,0.5 -0.5,0.5 z"
       fill="#231f20"
       id="path44" />
    <path
       d="m 416.34,223.12 h -28.26 c -0.28,0 -0.5,-0.22 -0.5,-0.5 0,-0.28 0.22,-0.5 0.5,-0.5 h 28.26 c 0.28,0 0.5,0.22 0.5,0.5 0,0.28 -0.22,0.5 -0.5,0.5 z"
       fill="#231f20"
       id="path45" />
    <path
       d="m 397.97,230.18 h -14.13 c -0.28,0 -0.5,-0.22 -0.5,-0.5 0,-0.28 0.22,-0.5 0.5,-0.5 h 14.13 c 0.28,0 0.5,0.22 0.5,0.5 0,0.28 -0.22,0.5 -0.5,0.5 z"
       fill="#231f20"
       id="path46" />
    <g
       id="g47">
      <rect
         x="103.28"
         y="298.70001"
         width="303.84"
         height="32.5"
         fill="#ffffff"
         id="rect46" />
      <path
         d="M 407.62,331.71 H 102.78 v -33.5 h 304.84 z m -303.84,-1 h 302.84 v -31.5 H 103.78 Z"
         fill="#231f20"
         id="path47" />
    </g>
    <g
       id="g48">
      <polygon
         points="251.55,261.39 239.93,261.56 230.46,298.7 376.03,298.7 376.03,290.22 243.18,290.22 "
         fill="#ffffff"
         id="polygon47" />
      <path
         d="M 376.53,299.2 H 229.82 l 9.72,-38.13 12.67,-0.19 -8.37,28.84 h 132.68 v 9.48 z m -145.42,-1 h 144.42 v -7.48 H 242.52 l 8.36,-28.82 -10.55,0.16 -9.21,36.15 z"
         fill="#231f20"
         id="path48" />
    </g>
    <g
       id="g49">
      <polygon
         points="121.65,298.75 118.41,263.37 178.18,263.37 175.47,298.75 "
         fill="#ffffff"
         id="polygon48" />
      <path
         d="m 175.93,299.25 h -54.74 l -3.33,-36.38 h 60.86 l -2.78,36.38 z m -53.83,-1 H 175 l 2.63,-34.38 h -58.68 z"
         fill="#231f20"
         id="path49" />
    </g>
    <g
       id="g51">
      <path
         d="m 301.12,431.54 c 0,0 -8.8,4.49 -14.47,-25.63 l 11.65,-8.29 c 0,0 3.97,22.66 2.83,33.92 z"
         fill="#231f20"
         id="path50" />
      <path
         d="m 299.87,432.28 c -0.62,0 -1.41,-0.13 -2.31,-0.57 -3.3,-1.62 -7.96,-7.39 -11.4,-25.7 l -0.06,-0.31 12.55,-8.94 0.14,0.78 c 0.04,0.23 3.96,22.86 2.83,34.05 l -0.03,0.27 -0.24,0.12 c 0,0 -0.59,0.29 -1.48,0.29 z M 287.2,406.14 c 3.35,17.57 7.69,23.1 10.75,24.65 1.3,0.65 2.27,0.52 2.7,0.4 0.91,-9.97 -2.05,-28.64 -2.72,-32.69 l -10.74,7.64 z"
         fill="#231f20"
         id="path51" />
    </g>
    <g
       id="g53">
      <path
         d="m 163.23,388.55 c 0,0 0.81,-5.05 3.64,-6.47 0,0 11.31,-7.07 24.02,-2.83 12.72,4.24 76.31,38.16 76.31,38.16 0,0 1.41,7.07 -1.41,15.55 0,0 -2.83,12.72 -18.37,8.48 l -42.4,-26.85 c 0,0 -21.2,-2.83 -24.02,-5.65 -2.83,-2.83 -17.77,-20.38 -17.77,-20.38 z"
         fill="#ffffff"
         id="path52" />
      <path
         d="m 253.34,442.8 c -1.87,0 -3.89,-0.29 -6.05,-0.88 l -0.14,-0.06 -42.3,-26.79 c -1.83,-0.25 -21.37,-2.94 -24.2,-5.78 -2.81,-2.81 -17.19,-19.7 -17.8,-20.41 l -0.15,-0.18 0.04,-0.23 c 0.03,-0.22 0.89,-5.32 3.91,-6.84 0.07,-0.05 11.61,-7.12 24.41,-2.85 12.61,4.2 75.75,37.85 76.39,38.19 l 0.21,0.11 0.05,0.23 c 0.06,0.29 1.41,7.29 -1.43,15.8 -0.03,0.16 -1.17,5.05 -5.79,7.84 -2.04,1.23 -4.43,1.85 -7.14,1.85 z m -5.72,-1.83 c 4.98,1.35 9.13,1.05 12.33,-0.87 4.26,-2.56 5.34,-7.21 5.35,-7.25 2.48,-7.45 1.65,-13.84 1.45,-15.11 -4.09,-2.18 -63.85,-33.95 -76.02,-38.01 -12.34,-4.11 -23.49,2.71 -23.6,2.78 -2.28,1.14 -3.18,4.94 -3.37,5.9 1.59,1.87 14.96,17.55 17.59,20.17 2.22,2.22 17.89,4.73 23.74,5.51 l 0.2,0.07 z"
         fill="#231f20"
         id="path53" />
    </g>
    <g
       id="g55">
      <path
         d="m 244.6,377.84 c 0,0 -15.55,7.07 -29.68,2.83 0,0 -36.74,-11.31 -48.05,1.41 0,0 18.37,-4.24 29.68,8.48 0,0 14.03,14.03 38.45,16.64 4.3,0.46 8.54,1.34 12.57,2.9 8.52,3.31 20.03,10.18 18.22,22.85 l 16.96,-24.02 7.07,-9.89 -5.65,-11.31 -22.61,-9.89 z"
         fill="#000000"
         id="path54" />
      <path
         d="m 265.01,434.94 0.29,-2.05 c 1.72,-12.03 -8.79,-18.77 -17.91,-22.31 -3.69,-1.43 -7.76,-2.37 -12.44,-2.87 -24.32,-2.6 -38.61,-16.65 -38.75,-16.79 -10.99,-12.36 -29.03,-8.39 -29.21,-8.35 l -1.53,0.35 1.04,-1.17 c 11.39,-12.81 47.06,-2.02 48.57,-1.56 13.78,4.13 29.17,-2.73 29.32,-2.8 l 0.21,-0.04 17.16,0.04 22.78,9.96 5.87,11.74 -7.24,10.14 -18.15,25.72 z m -91.04,-54.01 c 6.5,0 16.06,1.54 22.95,9.3 0.12,0.12 14.18,13.92 38.13,16.48 4.77,0.51 8.93,1.47 12.7,2.93 7.37,2.86 19.23,9.37 18.71,21.5 l 15.88,-22.5 6.89,-9.65 -5.44,-10.87 -22.35,-9.78 h -16.75 c -1.38,0.6 -16.38,6.87 -29.93,2.81 -0.36,-0.11 -34.33,-10.39 -46.43,0.17 1.28,-0.18 3.24,-0.39 5.62,-0.39 z"
         fill="#231f20"
         id="path55" />
    </g>
    <g
       id="g57">
      <path
         d="m 450.93,483.83 v 121.68 c 0,3.82 3.1,6.92 6.92,6.92 H 596.49 V 481 h -14.13 v 113.2 c 0,3.82 -3.1,6.92 -6.92,6.92 H 473.4 c -3.82,0 -6.92,-3.1 -6.92,-6.92 V 485.24 Z"
         fill="#ffffff"
         id="path56" />
      <path
         d="M 596.99,612.94 H 457.85 c -4.09,0 -7.42,-3.33 -7.42,-7.42 V 483.29 l 16.54,1.5 v 109.42 c 0,3.54 2.88,6.42 6.42,6.42 h 102.04 c 3.54,0 6.42,-2.88 6.42,-6.42 v -113.7 h 15.13 V 612.94 Z M 451.43,484.39 v 121.13 c 0,3.54 2.88,6.42 6.42,6.42 H 595.99 V 481.51 h -13.13 v 112.7 c 0,4.09 -3.33,7.42 -7.42,7.42 H 473.4 c -4.09,0 -7.42,-3.33 -7.42,-7.42 V 485.7 l -14.54,-1.32 z"
         fill="#231f20"
         id="path57" />
    </g>
    <g
       id="g59">
      <path
         d="M 647.01,606.78 H 531.39 c -2.29,0 -4.15,-1.86 -4.15,-4.15 V 486.66 h -11.31 v 122.95 c 0,0 -0.81,9.69 14.43,11.2 h 54.67 c 0,0 9.74,-0.05 16.95,-2.09 l 45.03,-11.85 c 0.05,-0.01 0.04,-0.09 -0.01,-0.09 z"
         fill="#ffffff"
         id="path58" />
      <path
         d="m 585.05,621.31 h -54.68 c -15.6,-1.55 -14.94,-11.64 -14.93,-11.75 V 486.15 c 0,0 12.3,0 12.3,0 v 116.47 c 0,2.02 1.64,3.65 3.65,3.65 h 116.06 l 0.16,0.91 -0.46,0.16 -45.03,11.85 c -7.19,2.04 -16.98,2.11 -17.08,2.11 z M 516.44,487.16 v 122.45 c -0.03,0.42 -0.55,9.26 13.98,10.71 h 54.63 c 0.09,0 9.75,-0.07 16.81,-2.08 L 643.5,607.28 H 531.4 c -2.57,0 -4.65,-2.09 -4.65,-4.65 V 487.16 Z"
         fill="#231f20"
         id="path59" />
    </g>
    <g
       id="g61">
      <path
         d="m 377.44,287.4 -101.75,72.07 c 0,0 26.79,15.51 25.44,71.89 0,0.07 0.08,0.12 0.14,0.08 l 25.29,-18.27 -45.22,139.91 c 0,0 21.2,25.44 67.83,31.09 0,0 48.05,-128.6 57.94,-148.39 0,0 16.96,2.83 50.88,1.41 0,0 55.12,1.41 74.9,8.48 0,0 18.37,7.07 33.92,0 0,0 28.88,-7.22 57.78,-2.78 5.6,0.86 11.31,-0.41 15.98,-3.62 5.87,-4.04 12.93,-10.46 15.27,-19.04 L 571.15,368.04 544.2,363.7 c 0,0 -117.3,-22.61 -118.71,-21.2 -1.41,1.41 -19.78,-14.13 -19.78,-14.13 l -28.26,-40.98 z"
         fill="#57befa"
         id="path60" />
      <path
         d="m 349.5,584.72 -0.39,-0.05 c -46.3,-5.61 -67.94,-31.01 -68.16,-31.27 l -0.18,-0.21 0.08,-0.26 44.75,-138.45 -24.31,17.55 -0.37,-0.14 c -0.2,-0.1 -0.32,-0.31 -0.32,-0.53 1.33,-55.45 -24.93,-71.3 -25.19,-71.45 l -0.67,-0.39 102.8,-72.82 28.51,41.35 c 8.31,7.02 17.64,14.16 19.12,14.06 0.51,-0.38 3.58,-0.54 60.27,9.98 29.17,5.41 58.53,11.07 58.83,11.13 l 27.04,4.35 0.08,0.05 85.01,52.38 -0.1,0.36 c -2.41,8.82 -9.74,15.37 -15.47,19.32 -4.76,3.28 -10.57,4.59 -16.34,3.7 -28.46,-4.37 -57.29,2.7 -57.58,2.77 -15.47,7.04 -34.03,0.05 -34.22,-0.02 -19.47,-6.95 -74.18,-8.43 -74.73,-8.45 -30.86,1.29 -47.91,-0.97 -50.58,-1.36 -10.12,20.58 -57.28,146.73 -57.76,148.01 l -0.14,0.37 z m -67.6,-31.75 c 2.15,2.42 23.54,25.28 66.94,30.66 2.87,-7.66 48.3,-129.01 57.82,-148.07 l 0.17,-0.33 0.36,0.06 c 0.17,0.03 17.32,2.8 50.77,1.41 0.59,0.01 55.46,1.5 75.09,8.51 0.19,0.07 18.37,6.91 33.54,0.02 0.38,-0.1 29.4,-7.22 58.06,-2.82 5.53,0.85 11.07,-0.41 15.62,-3.54 5.51,-3.79 12.55,-10.05 14.97,-18.4 L 570.95,368.53 544.1,364.2 c -31.81,-6.13 -114.86,-21.87 -118.4,-21.25 -1.83,0.93 -12.01,-7.15 -20.34,-14.19 l -0.09,-0.1 -27.98,-40.57 -100.74,71.36 c 4.05,2.83 26.04,20.56 25.07,71.09 l 25.86,-18.68 -45.61,141.09 z"
         fill="#231f20"
         id="path61" />
    </g>
    <g
       id="g63">
      <path
         d="m 352.8,251.27 52.12,79.43 c 1.32,2.01 3.73,3.02 6.09,2.55 L 526.9,307.11 c 2.78,-0.63 3.96,-3.93 2.21,-6.18 l -59.8,-76.7 c -0.89,-1.14 -2.33,-1.69 -3.75,-1.44 l -108.73,19.4 c -4.25,0.65 -6.4,5.48 -4.04,9.08 z"
         fill="#57befa"
         id="path62" />
      <path
         d="m 409.85,333.87 c -2.13,0 -4.14,-1.06 -5.34,-2.89 l -52.12,-79.43 c -1.2,-1.83 -1.39,-4.12 -0.5,-6.12 0.89,-2 2.72,-3.39 4.88,-3.72 l 108.72,-19.4 c 1.6,-0.29 3.23,0.33 4.23,1.62 l 59.8,76.7 c 0.93,1.19 1.18,2.75 0.67,4.17 -0.51,1.42 -1.69,2.47 -3.16,2.8 l -115.89,26.14 c -0.43,0.09 -0.86,0.13 -1.28,0.13 z M 353.22,251 l 52.12,79.43 c 1.22,1.85 3.41,2.77 5.58,2.33 L 526.8,306.63 c 1.14,-0.26 2.05,-1.06 2.44,-2.16 0.39,-1.1 0.2,-2.3 -0.52,-3.22 l -59.8,-76.7 c -0.77,-0.99 -2.02,-1.47 -3.26,-1.25 l -108.73,19.4 c -1.84,0.28 -3.38,1.46 -4.13,3.14 -0.75,1.69 -0.6,3.62 0.42,5.16 z"
         fill="#231f20"
         id="path63" />
    </g>
    <g
       id="g64">
      <polygon
         points="422.66,324.14 367.55,246.41 465.06,228.04 520.17,300.12 "
         fill="#ffffff"
         id="polygon63" />
      <path
         d="m 422.45,324.71 -0.2,-0.28 -55.57,-78.36 98.58,-18.57 55.77,72.92 z m -54.05,-77.95 54.47,76.81 96.44,-23.76 -54.46,-71.22 -96.44,18.17 z"
         fill="#231f20"
         id="path64" />
    </g>
    <g
       id="g65">
      <rect
         x="382.41"
         y="278.34"
         width="6.52"
         height="13.99"
         rx="3.26"
         ry="3.26"
         transform="rotate(-30,385.66383,285.33831)"
         fill="#231f20"
         id="rect64" />
      <path
         d="m 387.54,292.33 c -1.3,0 -2.57,-0.67 -3.26,-1.88 l -3.73,-6.46 c -0.5,-0.87 -0.64,-1.88 -0.38,-2.85 0.26,-0.97 0.88,-1.78 1.75,-2.28 1.8,-1.04 4.1,-0.42 5.14,1.38 l 3.73,6.46 c 0.5,0.87 0.64,1.88 0.38,2.85 -0.26,0.97 -0.88,1.78 -1.75,2.28 -0.59,0.34 -1.24,0.5 -1.87,0.5 z m -3.74,-12.99 c -0.47,0 -0.94,0.12 -1.38,0.37 -0.64,0.37 -1.1,0.96 -1.29,1.68 -0.19,0.71 -0.09,1.46 0.28,2.1 l 3.73,6.46 c 0.37,0.64 0.96,1.1 1.68,1.29 0.71,0.19 1.46,0.09 2.1,-0.28 v 0 c 0.64,-0.37 1.1,-0.96 1.29,-1.68 0.19,-0.72 0.09,-1.46 -0.28,-2.1 l -3.73,-6.46 c -0.51,-0.88 -1.44,-1.38 -2.4,-1.38 z"
         fill="#231f20"
         id="path65" />
    </g>
    <path
       d="m 405.7,246.91 c -0.23,0 -0.44,-0.16 -0.49,-0.39 -0.06,-0.27 0.11,-0.54 0.38,-0.6 l 57.94,-12.72 c 0.27,-0.06 0.54,0.11 0.6,0.38 0.06,0.27 -0.11,0.54 -0.38,0.6 l -57.94,12.72 c 0,0 -0.07,0.01 -0.11,0.01 z"
       fill="#231f20"
       id="path66" />
    <path
       d="m 411.35,256.81 c -0.22,0 -0.43,-0.15 -0.48,-0.38 -0.07,-0.27 0.1,-0.54 0.37,-0.6 l 42.63,-10.51 c 0.27,-0.07 0.54,0.1 0.6,0.37 0.07,0.27 -0.1,0.54 -0.37,0.6 l -42.63,10.51 c 0,0 -0.08,0.01 -0.12,0.01 z"
       fill="#231f20"
       id="path67" />
    <path
       d="m 407.12,269.53 c -0.22,0 -0.42,-0.15 -0.48,-0.37 -0.07,-0.27 0.08,-0.54 0.35,-0.61 l 22.87,-6.23 c 0.27,-0.07 0.54,0.08 0.61,0.35 0.07,0.27 -0.08,0.54 -0.35,0.61 l -22.87,6.23 c 0,0 -0.09,0.02 -0.13,0.02 z"
       fill="#231f20"
       id="path68" />
    <path
       d="m 435.12,261.53 c -0.22,0 -0.42,-0.15 -0.48,-0.37 -0.07,-0.27 0.09,-0.54 0.36,-0.61 l 38.87,-10.23 c 0.27,-0.07 0.54,0.09 0.61,0.36 0.07,0.27 -0.09,0.54 -0.36,0.61 l -38.87,10.23 c 0,0 -0.09,0.02 -0.13,0.02 z"
       fill="#231f20"
       id="path69" />
    <path
       d="m 426.9,278 c -0.22,0 -0.42,-0.15 -0.48,-0.37 -0.07,-0.27 0.08,-0.54 0.35,-0.61 l 57.08,-15.71 c 0.26,-0.07 0.54,0.08 0.61,0.35 0.07,0.27 -0.08,0.54 -0.35,0.61 l -57.08,15.71 c 0,0 -0.09,0.02 -0.13,0.02 z"
       fill="#231f20"
       id="path70" />
    <path
       d="m 433.97,287.9 c -0.22,0 -0.42,-0.15 -0.48,-0.37 -0.07,-0.27 0.09,-0.54 0.35,-0.61 l 58.02,-15.6 c 0.26,-0.07 0.54,0.09 0.61,0.35 0.07,0.27 -0.09,0.54 -0.35,0.61 l -58.02,15.6 c 0,0 -0.09,0.02 -0.13,0.02 z"
       fill="#231f20"
       id="path71" />
    <path
       d="m 429.73,300.62 c -0.22,0 -0.42,-0.14 -0.48,-0.36 -0.08,-0.27 0.08,-0.54 0.34,-0.62 l 18.26,-5.32 c 0.27,-0.08 0.54,0.08 0.62,0.34 0.08,0.27 -0.08,0.54 -0.34,0.62 l -18.26,5.32 c 0,0 -0.09,0.02 -0.14,0.02 z"
       fill="#231f20"
       id="path72" />
    <path
       d="m 443.86,310.51 c -0.23,0 -0.43,-0.15 -0.49,-0.38 -0.06,-0.27 0.1,-0.54 0.37,-0.6 l 46.64,-11.31 c 0.27,-0.07 0.54,0.1 0.6,0.37 0.06,0.27 -0.1,0.54 -0.37,0.6 l -46.64,11.31 c 0,0 -0.08,0.01 -0.12,0.01 z"
       fill="#231f20"
       id="path73" />
    <g
       id="g74">
      <polygon
         points="324.69,261.22 315.5,261.22 315.5,290.22 329.02,290.22 "
         fill="#ffffff"
         id="polygon73" />
      <path
         d="M 329.6,290.72 H 315 v -30.01 h 10.12 z m -13.6,-1 h 12.44 l -4.18,-28.01 H 316 Z"
         fill="#231f20"
         id="path74" />
    </g>
    <g
       id="g75">
      <polygon
         points="585.18,123.46 579.69,154.29 580.94,170.1 626.16,161.62 619.1,136.18 606.38,127.7 "
         fill="#ffffff"
         id="polygon74" />
      <path
         d="m 580.49,170.69 -1.3,-16.43 5.59,-31.39 21.88,4.41 12.87,8.58 7.26,26.14 -46.3,8.68 z m -0.29,-16.38 1.2,15.19 44.14,-8.28 -6.87,-24.73 -12.48,-8.32 -20.6,-4.12 z"
         fill="#231f20"
         id="path75" />
    </g>
    <g
       id="g77">
      <path
         d="m 400.96,449.73 v 18.37 c 0,3.3 2.53,6.05 5.81,6.33 l 110.57,9.4 c 0,0 55.12,5.65 65.01,-8.48 l 11.31,2.83 h 60.77 c 0,0 12.72,0 12.72,-24.02 v -15.55 c 0,0 -5.36,-2.32 -23.17,-2.57 0,0 -6.7,8.34 -19.32,6.87 0,0 -22.51,-4.29 -57.84,2.77 0,0 -14.13,7.07 -33.92,0 0,0 -22.61,-7.07 -74.9,-8.48 0,0 -42.4,1.41 -50.88,-1.41 l -6.16,13.95 z"
         fill="#e6e7e8"
         id="path76" />
      <path
         d="m 541.31,485.48 c -12.47,0 -23.04,-1.05 -24.02,-1.15 l -110.57,-9.4 c -3.58,-0.3 -6.27,-3.24 -6.27,-6.83 l 0.04,-18.57 6.34,-14.37 0.43,0.14 c 8.3,2.77 50.28,1.4 50.7,1.39 51.79,1.4 74.84,8.43 75.07,8.5 19.35,6.91 33.41,0.1 33.54,0.03 l 0.12,-0.04 c 35.02,-7 57.81,-2.82 58.03,-2.77 12.14,1.41 18.77,-6.61 18.84,-6.69 l 0.15,-0.19 h 0.24 c 17.71,0.25 23.14,2.52 23.36,2.62 l 0.3,0.13 v 15.87 c 0,24.25 -12.68,24.52 -13.22,24.52 l -60.89,-0.02 -10.98,-2.74 c -5.89,7.81 -25.15,9.56 -41.25,9.56 z M 401.45,449.84 v 18.27 c 0,3.07 2.3,5.57 5.36,5.83 l 110.57,9.4 c 0.56,0.06 54.94,5.46 64.56,-8.27 l 0.2,-0.28 11.58,2.9 h 60.71 c 0.12,0 12.22,-0.34 12.22,-23.52 v -15.2 c -1.35,-0.46 -7.42,-2.19 -22.45,-2.42 -1.12,1.25 -7.94,8.22 -19.61,6.86 -0.26,-0.05 -22.85,-4.19 -57.63,2.75 -1.07,0.5 -15.16,6.81 -34.24,0 -0.21,-0.06 -23.15,-7.06 -74.75,-8.45 -1.68,0.06 -41.24,1.34 -50.58,-1.31 l -5.94,13.45 z"
         fill="#231f20"
         id="path77" />
    </g>
    <path
       d="m 575.29,475.85 c 0,0 -0.02,0 -0.03,0 -0.28,-0.02 -0.48,-0.25 -0.47,-0.53 0.29,-4.62 -1.12,-8.67 -4.18,-12.06 -9.48,-10.48 -31.85,-11.43 -32.08,-11.43 l -128.61,-5.65 c -0.28,-0.01 -0.49,-0.25 -0.48,-0.52 0.01,-0.27 0.25,-0.49 0.52,-0.48 l 128.6,5.65 c 0.93,0.03 23.01,0.97 32.78,11.76 3.25,3.59 4.75,7.9 4.44,12.79 -0.02,0.27 -0.24,0.47 -0.5,0.47 z"
       fill="#231f20"
       id="path78" />
    <path
       d="m 650.19,450.42 c -0.12,0 -0.23,-0.04 -0.33,-0.12 -9.61,-8.24 -21.19,-6.66 -21.31,-6.65 -0.28,0.04 -0.53,-0.15 -0.57,-0.42 -0.04,-0.27 0.15,-0.53 0.42,-0.57 0.12,-0.02 12.15,-1.65 22.1,6.88 0.21,0.18 0.23,0.5 0.05,0.7 -0.1,0.12 -0.24,0.17 -0.38,0.17 z"
       fill="#231f20"
       id="path79" />
    <path
       d="m 326.56,413.67 c -0.14,0 -0.28,-0.06 -0.38,-0.18 -0.18,-0.21 -0.15,-0.53 0.06,-0.7 l 53.7,-45.22 c 0.65,-0.53 15.8,-12.84 25.76,-12.84 0.28,0 0.5,0.22 0.5,0.5 0,0.28 -0.22,0.5 -0.5,0.5 -9.6,0 -24.97,12.48 -25.12,12.61 l -53.7,45.22 c -0.09,0.08 -0.21,0.12 -0.32,0.12 z"
       fill="#231f20"
       id="path80" />
    <path
       d="m 327.98,557.82 c -0.05,0 -0.11,0 -0.16,-0.03 -0.26,-0.09 -0.4,-0.37 -0.31,-0.63 0.41,-1.22 41.16,-121.86 55.16,-145.65 0.14,-0.24 0.45,-0.32 0.68,-0.18 0.23,0.14 0.32,0.45 0.18,0.68 -13.94,23.71 -54.66,144.25 -55.07,145.47 -0.07,0.21 -0.26,0.34 -0.47,0.34 z"
       fill="#231f20"
       id="path81" />
    <path
       d="m 407.12,436.28 c 0,0 -0.05,0 -0.08,0 l -16.96,-2.83 c -0.27,-0.05 -0.46,-0.3 -0.41,-0.58 0.04,-0.27 0.3,-0.46 0.58,-0.41 l 16.96,2.83 c 0.27,0.05 0.46,0.3 0.41,0.58 -0.04,0.24 -0.25,0.42 -0.49,0.42 z"
       fill="#231f20"
       id="path82" />
    <path
       d="m 513.11,427.81 c 0,0 -0.04,0 -0.07,0 l -86.97,-11.68 c -4.09,-0.55 -7.95,-2.55 -10.88,-5.63 -1.21,-1.27 -2.29,-1.91 -3.21,-1.91 v 0 c -1.09,0 -1.92,0.89 -2.66,1.67 -0.15,0.16 -0.29,0.31 -0.43,0.45 -2.42,2.83 -4.6,4.04 -6.43,3.56 -2.4,-0.63 -3.53,-3.87 -4.05,-6.48 -0.3,-1.47 -0.78,-2.75 -1.44,-3.79 -1.29,-2.05 -2.72,-3.05 -4.22,-3.03 -3.39,0.09 -6.35,5.34 -6.38,5.4 -0.13,0.24 -0.44,0.33 -0.68,0.19 -0.24,-0.13 -0.33,-0.44 -0.19,-0.68 0.13,-0.24 3.27,-5.8 7.23,-5.91 1.89,-0.04 3.6,1.12 5.1,3.5 0.72,1.15 1.25,2.53 1.57,4.13 0.31,1.54 1.25,5.17 3.33,5.71 1.41,0.37 3.3,-0.76 5.45,-3.27 0.16,-0.16 0.3,-0.31 0.44,-0.46 0.83,-0.88 1.87,-1.99 3.38,-1.99 v 0 c 1.23,0 2.52,0.73 3.94,2.23 2.77,2.92 6.42,4.81 10.28,5.33 l 86.97,11.68 c 0.27,0.04 0.47,0.29 0.43,0.56 -0.03,0.25 -0.25,0.43 -0.5,0.43 z"
       fill="#231f20"
       id="path83" />
    <g
       id="g85">
      <path
         d="m 319.99,577.8 v 9 c -14.13,0 -16.03,11.5 -16.03,11.5 l -10.64,-0.76 c -10.42,-0.73 -19.42,-7.62 -22.8,-17.5 -0.33,-0.95 -0.48,-1.53 -0.48,-1.53 5.65,-9.89 11.31,-25.44 11.31,-25.44 15.55,16.96 38.65,24.72 38.65,24.72 z"
         fill="#ffffff"
         id="path84" />
      <path
         d="m 304.37,598.83 -11.1,-0.8 c -10.67,-0.75 -19.79,-7.75 -23.23,-17.83 -0.33,-0.97 -0.49,-1.56 -0.49,-1.56 l -0.05,-0.2 0.1,-0.18 c 5.57,-9.74 11.21,-25.21 11.27,-25.36 l 0.28,-0.77 0.56,0.61 c 15.28,16.66 38.21,24.5 38.44,24.58 l 0.34,0.11 v 9.86 h -0.5 c -13.52,0 -15.46,10.63 -15.54,11.09 z m -33.8,-20.25 c 0.07,0.24 0.21,0.69 0.42,1.3 3.32,9.7 12.09,16.43 22.36,17.16 l 10.21,0.73 c 0.54,-2.14 3.57,-11.23 15.93,-11.47 v -8.15 c -2.9,-1.04 -23.55,-8.79 -37.96,-24.14 -1.21,3.23 -6.09,16 -10.95,24.57 z"
         fill="#231f20"
         id="path85" />
    </g>
    <g
       id="g86">
      <rect
         x="206.44"
         y="619.5"
         width="122.95"
         height="9.8900003"
         fill="#ffffff"
         id="rect85" />
      <path
         d="M 329.89,629.89 H 205.94 V 619 h 123.95 z m -122.95,-1 H 328.89 V 620 H 206.94 Z"
         fill="#231f20"
         id="path86" />
    </g>
    <g
       id="g88">
      <path
         d="m 275.69,359.47 c 0,0 -18.37,11.31 -31.09,18.37 0,0 -1.13,11.34 12.85,14.72 2.42,0.58 4.91,0.78 7.4,0.69 5.16,-0.19 19.06,0.69 17.9,15.68 l 15.55,-11.31 c 0,0 -4.24,-25.44 -22.61,-38.16 z"
         fill="#ffffff"
         id="path87" />
      <path
         d="m 282.17,409.97 0.08,-1.08 c 0.35,-4.57 -0.71,-8.17 -3.15,-10.71 -3.99,-4.16 -10.64,-4.57 -14.24,-4.43 -2.68,0.1 -5.21,-0.14 -7.53,-0.7 -14.25,-3.44 -13.25,-15.14 -13.23,-15.26 l 0.03,-0.26 0.23,-0.13 c 12.56,-6.98 30.89,-18.25 31.07,-18.36 l 0.28,-0.17 0.27,0.19 c 18.33,12.69 22.78,38.23 22.82,38.49 l 0.05,0.3 -16.67,12.12 z m -16.21,-17.24 c 3.91,0 10.01,0.73 13.87,4.76 2.45,2.55 3.62,6.05 3.48,10.42 l 14.44,-10.5 c -0.55,-2.88 -5.38,-25.58 -22.08,-37.34 -2.35,1.44 -18.87,11.56 -30.59,18.08 -0.08,1.7 0.1,10.94 12.49,13.93 2.24,0.54 4.68,0.77 7.26,0.67 0.35,-0.01 0.73,-0.02 1.13,-0.02 z"
         fill="#231f20"
         id="path88" />
    </g>
    <path
       d="m 155.56,299.43 c -0.28,0 -0.5,-0.22 -0.5,-0.5 v -29.91 c 0,-0.28 0.22,-0.5 0.5,-0.5 0.28,0 0.5,0.22 0.5,0.5 v 29.91 c 0,0.28 -0.22,0.5 -0.5,0.5 z"
       fill="#231f20"
       id="path89" />
    <g
       id="g90">
      <rect
         x="545.96997"
         y="78.540001"
         width="43.810001"
         height="77.589996"
         rx="21.9"
         ry="21.9"
         transform="rotate(-17.74,567.77884,117.32419)"
         fill="#ffffff"
         id="rect89" />
      <path
         d="m 572.99,155.84 c -3.52,0 -7.02,-0.84 -10.24,-2.5 -5.32,-2.74 -9.25,-7.39 -11.08,-13.09 l -10.29,-32.18 c -1.82,-5.7 -1.32,-11.77 1.42,-17.09 2.74,-5.32 7.39,-9.25 13.09,-11.08 5.7,-1.82 11.77,-1.32 17.09,1.42 5.32,2.74 9.25,7.39 11.08,13.09 l 10.29,32.18 c 1.82,5.7 1.32,11.77 -1.42,17.09 -2.74,5.32 -7.39,9.25 -13.09,11.08 -2.25,0.72 -4.56,1.08 -6.85,1.08 z M 562.75,79.83 c -2.19,0 -4.4,0.34 -6.54,1.03 -5.45,1.74 -9.89,5.5 -12.51,10.58 -2.62,5.08 -3.1,10.88 -1.36,16.33 l 10.29,32.18 c 1.74,5.45 5.5,9.89 10.58,12.51 5.08,2.62 10.88,3.1 16.33,1.36 5.45,-1.74 9.89,-5.5 12.51,-10.58 2.62,-5.08 3.1,-10.88 1.36,-16.33 L 583.12,94.73 c -1.74,-5.45 -5.5,-9.89 -10.58,-12.51 -3.08,-1.59 -6.42,-2.39 -9.78,-2.39 z"
         fill="#231f20"
         id="path90" />
    </g>
    <g
       id="g92">
      <path
         d="M 556.92,109.33 532.9,85.31 c 0,0 -14.13,-15.55 18.37,-24.02 0,0 -7.07,-9.89 15.55,-5.65 0,0 14.13,-11.31 22.61,0 0,0 28.26,-2.83 28.26,35.33 0,0 -1.41,25.44 1.41,45.22 0,0 -29.3,22.8 -49.98,-14.04 l -12.2,-12.81 z"
         fill="#ffffff"
         id="path91" />
      <path
         d="m 598.56,143.65 c -1.77,0 -3.6,-0.16 -5.46,-0.54 -9.56,-1.93 -17.76,-8.88 -24.4,-20.67 L 556.55,109.68 532.53,85.66 c -0.2,-0.22 -4.55,-5.09 -2.79,-11.02 1.74,-5.84 8.71,-10.44 20.74,-13.67 -0.52,-0.96 -1.3,-2.9 -0.26,-4.53 1.66,-2.6 7.19,-3.05 16.45,-1.34 1.21,-0.92 7.93,-5.76 14.76,-4.89 3.25,0.41 6.01,2.06 8.21,4.9 1.74,-0.11 10.81,-0.33 18.35,6.49 6.76,6.12 10.19,15.99 10.19,29.36 -0.01,0.28 -1.38,25.64 1.41,45.15 l 0.04,0.29 -0.23,0.18 c -0.1,0.08 -9.25,7.07 -20.84,7.07 z m -41.2,-88.59 c -4.01,0 -5.66,0.92 -6.29,1.91 -1.06,1.65 0.58,4 0.6,4.02 l 0.42,0.59 -0.7,0.18 c -12.06,3.15 -19.02,7.58 -20.68,13.16 -1.6,5.39 2.51,10 2.55,10.04 l 24.02,24.02 12.27,12.91 c 6.49,11.56 14.48,18.36 23.75,20.23 12.56,2.53 23.55,-4.94 25.26,-6.18 -2.75,-19.57 -1.39,-44.77 -1.38,-45.03 0,-13.04 -3.32,-22.67 -9.86,-28.59 -7.87,-7.12 -17.76,-6.23 -17.86,-6.22 l -0.28,0.03 -0.17,-0.23 c -2.06,-2.75 -4.65,-4.34 -7.7,-4.73 -6.96,-0.88 -14.13,4.76 -14.2,4.82 l -0.18,0.14 -0.23,-0.04 c -4.04,-0.76 -7.07,-1.06 -9.35,-1.06 z"
         fill="#231f20"
         id="path92" />
    </g>
    <g
       id="g93">
      <ellipse
         cx="563.28003"
         cy="114.99"
         rx="6.3600001"
         ry="9.8900003"
         transform="rotate(-19.62,563.26528,114.99484)"
         fill="#ffffff"
         id="ellipse92" />
      <path
         d="m 565.19,125.04 c -3.21,0 -6.73,-3.13 -8.38,-7.75 -0.92,-2.58 -1.14,-5.24 -0.61,-7.5 0.54,-2.33 1.82,-3.97 3.58,-4.6 1.77,-0.63 3.78,-0.17 5.68,1.29 1.83,1.41 3.35,3.61 4.27,6.19 1.92,5.4 0.59,10.82 -2.97,12.09 -0.51,0.18 -1.04,0.27 -1.57,0.27 z m -3.81,-19.12 c -0.44,0 -0.86,0.07 -1.26,0.22 -1.43,0.51 -2.48,1.89 -2.94,3.88 -0.48,2.07 -0.28,4.53 0.58,6.93 1.74,4.88 5.63,7.97 8.67,6.88 3.04,-1.08 4.1,-5.94 2.37,-10.81 v 0 c -0.85,-2.4 -2.25,-4.44 -3.94,-5.74 -1.16,-0.9 -2.36,-1.36 -3.47,-1.36 z"
         fill="#231f20"
         id="path93" />
    </g>
    <g
       id="g95">
      <path
         d="M 329.39,619.5 H 206.44 c -1.41,-9.89 29.68,-15.55 29.68,-15.55 18.37,-5.65 33.92,-25.44 33.92,-25.44 0,0 0.16,0.58 0.48,1.53 3.38,9.88 12.38,16.76 22.8,17.5 l 8.05,0.58 c 1.41,0.1 2.7,-0.78 3.14,-2.13 0.87,-2.73 3.06,-7.16 8.37,-9.25 4.59,-1.8 9.69,0.22 12.01,4.56 5.42,10.13 4.51,28.2 4.51,28.2 z"
         fill="#000000"
         id="path94" />
      <path
         d="M 329.86,620 H 206 l -0.06,-0.43 c -1.46,-10.25 28.79,-15.87 30.08,-16.11 17.95,-5.53 33.46,-25.06 33.61,-25.26 l 0.62,-0.78 0.26,0.96 c 0,0 0.15,0.57 0.47,1.49 3.32,9.7 12.09,16.44 22.36,17.16 l 8.05,0.58 c 1.19,0.08 2.26,-0.65 2.62,-1.78 0.84,-2.63 3.08,-7.37 8.66,-9.56 4.75,-1.87 10.18,0.2 12.64,4.79 5.42,10.14 4.61,27.72 4.57,28.46 z M 206.89,619 H 328.9 c 0.09,-2.91 0.33,-18.48 -4.47,-27.46 -2.22,-4.15 -7.11,-6.01 -11.39,-4.33 -5.2,2.04 -7.29,6.48 -8.08,8.94 -0.5,1.58 -2,2.6 -3.65,2.48 l -8.05,-0.58 c -10.67,-0.75 -19.79,-7.75 -23.23,-17.83 -0.08,-0.24 -0.15,-0.46 -0.21,-0.65 -3.05,3.65 -17.27,19.86 -33.56,24.87 -0.36,0.07 -29.73,5.52 -29.37,14.57 z"
         fill="#231f20"
         id="path95" />
    </g>
    <g
       id="g97">
      <path
         d="m 167.8,385.21 c 2.78,0 6.7,0.72 11.83,3.29 4.7,2.35 8.88,5.59 12.53,9.36 4.72,4.88 15.39,13.9 29.82,13.9 0,0 29.68,0 36.74,19.78 0,0 4.24,14.13 -18.37,8.48 l -25.68,-4.94 c -12.71,-2.44 -24.72,-7.89 -34.62,-16.24 -8.13,-6.86 -15.61,-16.21 -17.14,-28.07 -0.38,-2.97 1.89,-5.58 4.89,-5.58 z"
         fill="#231f20"
         id="path96" />
      <path
         d="m 249.58,441.86 c -2.62,0 -5.74,-0.45 -9.34,-1.35 l -25.65,-4.93 c -13.1,-2.52 -25.15,-8.17 -34.85,-16.34 -10.16,-8.57 -15.99,-18.12 -17.32,-28.39 -0.2,-1.56 0.27,-3.14 1.31,-4.31 1.02,-1.16 2.51,-1.83 4.07,-1.83 v 0 c 3.58,0 7.63,1.13 12.05,3.34 4.52,2.26 8.78,5.44 12.67,9.46 4.96,5.14 15.39,13.75 29.46,13.75 0.3,0 30.11,0.23 37.21,20.12 0.07,0.22 1.38,4.75 -1.56,7.83 -1.69,1.77 -4.38,2.65 -8.06,2.65 z M 167.8,385.7 c -1.27,0 -2.48,0.54 -3.32,1.49 -0.84,0.96 -1.23,2.24 -1.07,3.52 1.29,10.01 7,19.35 16.97,27.75 9.57,8.06 21.46,13.64 34.39,16.13 l 25.68,4.94 c 8.19,2.05 13.87,1.7 16.46,-1.01 2.54,-2.66 1.35,-6.79 1.34,-6.84 -6.86,-19.2 -35.97,-19.43 -36.26,-19.43 -14.44,0 -25.11,-8.81 -30.18,-14.06 -3.81,-3.94 -7.98,-7.05 -12.39,-9.26 -4.28,-2.14 -8.19,-3.23 -11.61,-3.23 v 0 z"
         fill="#231f20"
         id="path97" />
    </g>
    <g
       id="g99">
      <path
         d="m 740.64,302.94 c 0,0 -9.89,18.38 -33.92,19.79 l -137.08,63.59 c 0,0 -11.31,-2.82 -19.79,-12.72 0,0 -27.11,50.35 -65.29,23.96 -3.82,-2.65 -8.34,-4.11 -12.99,-4.3 -16.93,-0.71 -56.28,-4.86 -57.38,-28.14 l -0.07,-1.51 -1.35,-28.16 c 0,0 0.72,-9.34 11.38,-12.14 4.29,-1.13 10.19,-1.2 18.3,0.83 l 43.81,5.65 c 0,0 18.37,-100.33 49.46,-124.36 l 24.03,-18.37 c 0,0 1.41,-15.55 31.09,-24.02 0,0 52.29,-17.44 75.07,-9.06 3.84,1.42 5.69,5.95 3.86,9.61 -0.95,1.9 -2.62,4.09 -5.44,6.51 0,0 21.19,5.65 38.15,22.61 l 21.32,19.3 c 9.63,8.7 18.17,18.56 25.2,29.46 13.5,20.95 25.2,50.87 -8.36,61.47 z"
         fill="#000000"
         id="path98" />
      <path
         d="m 506.77,405.71 c -7.51,0 -15.05,-2.59 -22.5,-7.74 -3.7,-2.57 -8.1,-4.02 -12.73,-4.21 -17.02,-0.71 -56.74,-4.93 -57.86,-28.62 l -1.42,-29.67 c 0,-0.16 0.87,-9.79 11.75,-12.65 4.93,-1.3 11.17,-1.02 18.55,0.83 l 43.28,5.58 c 1.42,-7.47 19.76,-101.17 49.56,-124.2 l 23.86,-18.24 c 0.29,-2.03 3.33,-16.21 31.42,-24.23 2.12,-0.71 52.7,-17.39 75.38,-9.05 1.99,0.73 3.58,2.3 4.37,4.3 0.78,1.97 0.69,4.15 -0.23,6 -1,2 -2.64,4.04 -4.88,6.06 4.2,1.29 22.58,7.57 37.49,22.48 l 21.3,19.28 c 9.89,8.94 18.4,18.88 25.28,29.56 8.29,12.87 17.12,31.15 12.08,45.12 -2.83,7.86 -9.74,13.59 -20.52,17.03 -1.12,1.92 -11.45,18.49 -34.13,19.87 l -137.15,63.62 -0.17,-0.04 c -0.11,-0.03 -11.15,-2.87 -19.58,-12.35 -2.3,3.96 -15.62,25.57 -35.35,30.31 -2.6,0.62 -5.2,0.94 -7.81,0.94 z m -76.01,-82.68 c -2.38,0 -4.54,0.26 -6.49,0.77 -10.2,2.68 -11,11.6 -11.01,11.69 l 1.42,29.61 c 1.08,22.86 40.15,26.96 56.9,27.66 4.82,0.2 9.4,1.71 13.25,4.39 9.79,6.77 19.72,9.01 29.51,6.65 21.2,-5.1 34.92,-30.19 35.06,-30.44 l 0.35,-0.64 0.47,0.55 c 7.72,9.01 17.94,12.12 19.36,12.52 l 137,-63.55 h 0.09 c 23.46,-1.38 33.41,-19.35 33.51,-19.53 l 0.1,-0.18 0.19,-0.06 c 10.58,-3.34 17.33,-8.88 20.07,-16.48 4.9,-13.6 -3.81,-31.56 -11.98,-44.24 -6.84,-10.6 -15.29,-20.48 -25.11,-29.36 l -21.32,-19.3 c -16.68,-16.68 -37.73,-22.44 -37.94,-22.5 l -0.92,-0.24 0.72,-0.62 c 2.49,-2.14 4.28,-4.27 5.32,-6.35 0.8,-1.6 0.87,-3.49 0.2,-5.19 -0.69,-1.73 -2.06,-3.09 -3.78,-3.73 -22.36,-8.22 -74.22,8.89 -74.74,9.07 -28.96,8.27 -30.74,23.44 -30.75,23.59 l -0.02,0.22 -0.17,0.13 -24.03,18.37 c -30.58,23.64 -49.09,123.05 -49.27,124.05 l -0.09,0.47 -44.28,-5.71 c -4.3,-1.07 -8.18,-1.61 -11.62,-1.61 z"
         fill="#231f20"
         id="path99" />
    </g>
    <g
       id="g101">
      <path
         d="m 412.77,335.45 1.35,28.16 c -0.96,-1.29 -11.1,-15.05 -13.63,-23.5 -0.34,-1.13 -0.98,-2.14 -1.86,-2.92 -2.41,-2.13 -6.95,-7.66 -6.03,-18.48 0.18,-2.07 -0.58,-4.11 -1.98,-5.65 l -7.8,-8.59 c -2.16,-2.37 -1.91,-6.07 0.56,-8.12 1.05,-0.88 2.33,-1.31 3.61,-1.31 1.45,0 2.89,0.56 3.99,1.65 l 11.9,11.91 c 0,0 18.49,9.51 21.26,14.65 v 0.06 c -10.65,2.8 -11.37,12.14 -11.37,12.14 z"
         fill="#ffffff"
         id="path100" />
      <path
         d="m 414.69,365.23 -0.98,-1.32 c -1.14,-1.54 -11.19,-15.24 -13.71,-23.65 -0.31,-1.04 -0.9,-1.97 -1.71,-2.69 -2.71,-2.4 -7.12,-8.05 -6.19,-18.9 0.16,-1.88 -0.51,-3.8 -1.85,-5.27 l -7.8,-8.59 c -1.14,-1.25 -1.7,-2.87 -1.58,-4.56 0.12,-1.69 0.9,-3.21 2.2,-4.28 1.1,-0.92 2.49,-1.42 3.93,-1.42 1.63,0 3.17,0.64 4.34,1.79 l 11.85,11.86 c 1.43,0.74 18.65,9.71 21.4,14.82 l 0.05,0.15 0.08,0.45 -0.43,0.18 c -9.98,2.62 -10.95,11 -11.01,11.67 l 1.43,29.77 z m -27.71,-69.69 c -1.2,0 -2.37,0.42 -3.29,1.19 -1.09,0.9 -1.74,2.18 -1.84,3.59 -0.1,1.41 0.37,2.77 1.33,3.81 l 7.8,8.59 c 1.53,1.68 2.3,3.88 2.11,6.03 -0.88,10.42 3.29,15.79 5.86,18.07 0.95,0.84 1.64,1.93 2.01,3.15 2.12,7.06 9.72,18.04 12.57,22 l -1.27,-26.52 v -0.03 c 0,-0.09 0.84,-9.36 11.13,-12.41 -3.51,-5.05 -20.57,-13.87 -20.75,-13.96 l -0.12,-0.09 -11.9,-11.91 c -0.98,-0.97 -2.27,-1.5 -3.64,-1.5 z"
         fill="#231f20"
         id="path101" />
    </g>
    <g
       id="g103">
      <path
         d="m 576.73,427.09 107.34,-4.81 c 8.12,-0.36 14.72,-6.66 15.47,-14.75 l 10.31,-111.76 c 0,0 -10.6,-12.82 -16.05,-21.2 l -82.65,2.07 c -19.51,0.49 -35.44,15.77 -36.74,35.24 l -6.95,105.51 c -0.35,5.32 3.94,9.81 9.27,9.69 z"
         fill="#ffffff"
         id="path102" />
      <path
         d="m 576.54,427.59 c -2.61,0 -5.13,-1.07 -6.94,-2.96 -1.85,-1.94 -2.82,-4.59 -2.64,-7.26 l 6.95,-105.51 c 1.32,-19.86 17.33,-35.21 37.23,-35.71 l 82.93,-2.07 0.15,0.23 c 5.37,8.26 15.91,21.02 16.02,21.15 l 0.13,0.16 -0.02,0.21 -10.31,111.76 c -0.77,8.3 -7.62,14.83 -15.94,15.21 l -107.35,4.81 c -0.07,0 -0.14,0 -0.2,0 z m 116.99,-152.51 -82.37,2.06 c -19.38,0.48 -34.96,15.44 -36.25,34.78 l -6.95,105.51 c -0.16,2.4 0.7,4.77 2.37,6.51 1.66,1.74 4.01,2.69 6.39,2.65 l 107.33,-4.81 c 7.83,-0.35 14.27,-6.5 14.99,-14.3 l 10.29,-111.55 c -1.23,-1.49 -10.69,-13.05 -15.8,-20.85 z"
         fill="#231f20"
         id="path103" />
    </g>
    <path
       d="m 583.77,416.5 c 0,0 -0.04,0 -0.06,0 -0.27,-0.03 -0.47,-0.28 -0.44,-0.55 l 11.31,-103.16 c 0.18,-0.86 4.34,-20.04 10.04,-25.74 0.2,-0.2 0.51,-0.2 0.71,0 0.2,0.2 0.2,0.51 0,0.71 -5.48,5.48 -9.71,24.99 -9.76,25.19 l -11.3,103.11 c -0.03,0.26 -0.24,0.45 -0.5,0.45 z"
       fill="#231f20"
       id="path104" />
    <g
       id="g106">
      <path
         d="m 606.84,321.66 -24.48,153.7 c 0,0 -6.86,11.71 -45.12,9.39 l -125.57,-9.69 c 0,0 -13.02,4.54 -17.26,46.94 L 393,611.03 c 0,0 1.41,22.61 35.33,21.2 h 154.42 c 4.54,0 9.07,-0.26 13.58,-0.78 8.75,-1.02 22.98,-3.23 35.5,-7.7 l 14.94,-5.34 c 4.68,-1.67 5.78,-7.97 1.77,-10.91 -0.05,-0.03 -0.09,-0.07 -0.14,-0.1 -0.59,-0.42 -1.36,-0.52 -2.06,-0.34 l -44.33,11.67 c -5.53,1.46 -11.23,2.19 -16.95,2.19 H 421.27 c 0,0 -16.96,0 -16.96,-22.61 L 405.72,522 c 0,0 0,-35.33 14.13,-35.33 l 89.03,1.41 c 0,0 67.83,4.24 83.38,-5.65 0,0 39.08,3.66 69.56,0.77 5.33,-0.51 9.95,-3.86 12.13,-8.75 2,-4.47 4.2,-11.32 5.93,-21.7 l 18.76,-134 c 0.56,-4 -2.32,-7.65 -6.33,-8.06 v 0 c -3.79,-0.38 -7.2,2.3 -7.74,6.07 l -17.41,121.86 c 0,0 4.24,38.16 -12.72,39.57 h -60.77 l 25.75,-154.47 c 0.6,-3.6 -1.95,-6.97 -5.58,-7.38 v 0 c -3.38,-0.38 -6.46,1.97 -6.99,5.33 z"
         fill="#ffffff"
         id="path105" />
      <path
         d="m 425.33,632.78 c -31.12,0 -32.84,-21.51 -32.85,-21.73 l 1.41,-89.07 c 4.23,-42.27 17.05,-47.21 17.6,-47.4 l 0.1,-0.03 h 0.1 c 0,0 125.57,9.7 125.57,9.7 35.96,2.19 43.95,-8.12 44.61,-9.07 l 24.47,-153.59 c 0.58,-3.63 3.89,-6.15 7.54,-5.75 1.89,0.21 3.57,1.16 4.72,2.68 1.15,1.52 1.61,3.39 1.3,5.27 l -25.65,153.89 h 60.18 c 2.7,-0.23 5.03,-1.49 6.9,-3.77 8.04,-9.77 5.35,-34.99 5.32,-35.25 v -0.06 c 0,0 0,-0.06 0,-0.06 l 17.41,-121.86 c 0.58,-4.05 4.22,-6.9 8.29,-6.49 2.08,0.21 3.93,1.23 5.22,2.87 1.29,1.64 1.84,3.69 1.55,5.75 l -18.76,134 c -1.5,8.98 -3.5,16.32 -5.97,21.83 -2.26,5.06 -7.07,8.53 -12.54,9.05 -29.16,2.77 -66.64,-0.5 -69.48,-0.76 -15.76,9.75 -80.77,5.81 -83.53,5.64 l -89.01,-1.41 c -13.47,0 -13.62,34.48 -13.62,34.83 l -1.41,76.32 c 0,21.81 15.79,22.1 16.46,22.1 h 163.79 c 5.67,0 11.33,-0.73 16.82,-2.18 l 44.33,-11.67 c 0.87,-0.23 1.77,-0.08 2.47,0.41 l 0.15,0.11 c 1.99,1.46 2.96,3.81 2.59,6.28 -0.37,2.54 -2.09,4.65 -4.49,5.5 l -14.94,5.34 c -12.29,4.39 -26.15,6.62 -35.61,7.73 -4.47,0.52 -9.06,0.78 -13.63,0.78 H 428.32 c -1.02,0.04 -2.02,0.06 -2.98,0.06 z M 411.74,475.55 c -1.11,0.51 -12.88,6.83 -16.85,46.48 l -1.41,88.99 c 0.06,0.86 1.82,22.06 34.81,20.69 h 154.44 c 4.54,0 9.09,-0.26 13.52,-0.78 9.41,-1.09 23.19,-3.31 35.39,-7.67 l 14.94,-5.34 c 2.05,-0.73 3.52,-2.54 3.84,-4.71 0.31,-2.1 -0.51,-4.1 -2.19,-5.33 l -0.13,-0.1 c -0.46,-0.32 -1.06,-0.41 -1.64,-0.26 l -44.33,11.67 c -5.57,1.47 -11.32,2.21 -17.08,2.21 H 421.26 c -0.17,0 -17.46,-0.26 -17.46,-23.11 l 1.41,-76.32 c 0,-1.45 0.17,-35.82 14.63,-35.82 l 89.04,1.41 c 0.7,0.04 67.87,4.12 83.1,-5.57 l 0.14,-0.09 0.17,0.02 c 0.39,0.04 39.38,3.63 69.46,0.77 5.12,-0.49 9.61,-3.73 11.72,-8.46 2.43,-5.43 4.41,-12.69 5.89,-21.58 l 18.76,-133.99 c 0.25,-1.8 -0.23,-3.57 -1.35,-5 -1.12,-1.43 -2.73,-2.31 -4.54,-2.49 -3.53,-0.35 -6.69,2.12 -7.2,5.64 l -17.4,121.8 c 0.19,1.73 2.64,25.98 -5.55,35.93 -2.05,2.49 -4.62,3.88 -7.63,4.13 h -61.4 c 0,0 25.84,-155.05 25.84,-155.05 0.27,-1.61 -0.13,-3.21 -1.11,-4.5 -0.98,-1.3 -2.41,-2.11 -4.03,-2.29 -3.12,-0.35 -5.95,1.81 -6.44,4.91 l -24.5,153.79 -0.05,0.08 c -0.29,0.49 -7.46,11.95 -45.58,9.63 l -125.46,-9.68 z"
         fill="#231f20"
         id="path106" />
    </g>
    <path
       d="m 637.89,215.25 c -18.53,0 -28.61,-11.34 -32.48,-16.99 -3.08,-4.49 -6.31,-8.06 -9.89,-10.9 -17.23,-13.69 -30.75,-9.26 -30.88,-9.22 -0.26,0.09 -0.55,-0.05 -0.64,-0.31 -0.09,-0.26 0.05,-0.55 0.31,-0.64 0.14,-0.05 14.17,-4.65 31.83,9.38 3.66,2.91 6.96,6.54 10.09,11.12 4.56,6.67 18.01,21.47 44.26,14.92 6.62,-1.65 12.19,-5.06 16.09,-9.85 5.3,-6.51 9.15,-17.41 -2.66,-32.36 -0.17,-0.22 -0.13,-0.53 0.08,-0.7 0.22,-0.17 0.53,-0.13 0.7,0.08 12.22,15.47 8.18,26.82 2.65,33.61 -4.04,4.96 -9.79,8.48 -16.62,10.18 -4.67,1.16 -8.95,1.67 -12.85,1.67 z"
       fill="#231f20"
       id="path107" />
    <path
       d="m 631.82,188.97 c -0.24,0 -0.45,-0.17 -0.49,-0.41 -0.05,-0.27 0.13,-0.53 0.4,-0.58 0.15,-0.03 15.53,-2.97 27.98,-16.8 0.19,-0.21 0.5,-0.22 0.71,-0.04 0.21,0.18 0.22,0.5 0.04,0.71 -12.69,14.1 -28.39,17.09 -28.55,17.12 -0.03,0 -0.06,0 -0.09,0 z"
       fill="#231f20"
       id="path108" />
    <path
       d="m 565.39,275.18 c -0.26,0 -0.48,-0.2 -0.5,-0.47 -2.78,-45.81 -33.85,-64.3 -34.16,-64.48 -0.24,-0.14 -0.32,-0.44 -0.18,-0.68 0.14,-0.24 0.44,-0.32 0.68,-0.18 0.32,0.18 31.85,18.91 34.66,65.28 0.02,0.28 -0.19,0.51 -0.47,0.53 -0.01,0 -0.02,0 -0.03,0 z"
       fill="#231f20"
       id="path109" />
    <path
       d="m 549.85,374.1 c -0.1,0 -0.21,-0.03 -0.3,-0.1 -0.22,-0.17 -0.27,-0.48 -0.1,-0.7 12.45,-16.6 11.22,-34.81 11.21,-34.99 -1.41,-16.88 2.82,-26.99 2.87,-27.09 5.58,-12.55 9.83,-26.66 9.87,-26.8 0.08,-0.26 0.36,-0.41 0.62,-0.34 0.26,0.08 0.41,0.36 0.34,0.62 -0.04,0.14 -4.31,14.31 -9.91,26.91 -0.04,0.09 -4.17,9.99 -2.79,26.61 0.01,0.19 1.28,18.76 -11.4,35.67 -0.1,0.13 -0.25,0.2 -0.4,0.2 z"
       fill="#231f20"
       id="path110" />
    <path
       d="m 473.54,368.45 c -0.11,0 -0.22,-0.04 -0.32,-0.11 -0.21,-0.18 -0.25,-0.49 -0.07,-0.7 12.46,-15.23 12.61,-37.62 12.61,-37.84 0,-0.28 0.22,-0.5 0.5,-0.5 0.28,0 0.5,0.22 0.5,0.5 0,0.23 -0.15,22.97 -12.83,38.47 -0.1,0.12 -0.24,0.18 -0.39,0.18 z"
       fill="#231f20"
       id="path111" />
    <path
       d="m 688.34,272.35 c -0.06,0 -0.12,-0.01 -0.19,-0.04 -0.26,-0.1 -0.38,-0.39 -0.28,-0.65 8.34,-20.86 7.05,-48.97 7.03,-49.25 -0.01,-0.28 0.2,-0.51 0.47,-0.52 0.26,-0.02 0.51,0.2 0.52,0.47 0.01,0.28 1.32,28.62 -7.1,49.67 -0.08,0.2 -0.27,0.31 -0.46,0.31 z"
       fill="#231f20"
       id="path112" />
    <path
       d="m 699.65,259.63 c -0.08,0 -0.16,-0.02 -0.23,-0.06 -0.24,-0.13 -0.34,-0.43 -0.21,-0.68 13.91,-26.43 13.29,-55.79 13.28,-56.09 0,-0.28 0.21,-0.51 0.49,-0.51 0.26,0 0.51,0.21 0.51,0.49 0,0.3 0.64,29.92 -13.39,56.58 -0.09,0.17 -0.26,0.27 -0.44,0.27 z"
       fill="#231f20"
       id="path113" />
    <path
       d="m 722.26,309.1 c -0.12,0 -0.24,-0.04 -0.34,-0.13 -0.2,-0.18 -19.96,-18.64 -29.78,-36.87 -0.13,-0.24 -0.04,-0.55 0.2,-0.68 0.24,-0.13 0.55,-0.04 0.68,0.2 9.74,18.09 29.38,36.43 29.58,36.61 0.2,0.19 0.21,0.5 0.03,0.71 -0.1,0.11 -0.23,0.16 -0.37,0.16 z"
       fill="#231f20"
       id="path114" />
  </g>
  <path
     d="m 461.74,68 c -0.21,0 -0.4,-0.13 -0.47,-0.34 l -2,-6 c -0.09,-0.26 0.05,-0.55 0.32,-0.63 0.26,-0.09 0.54,0.05 0.63,0.32 l 2,6 c 0.09,0.26 -0.05,0.55 -0.32,0.63 -0.05,0.02 -0.11,0.03 -0.16,0.03 z"
     fill="#231f20"
     id="path115" />
  <path
     d="m 442.49,75.83 c -0.69,0 -1.31,-0.45 -1.52,-1.13 l -2.44,-8.13 c -0.23,-0.76 0.15,-1.59 0.88,-1.91 l 15.3,-6.78 c 0.25,-0.11 0.55,0 0.66,0.25 0.11,0.25 0,0.55 -0.25,0.66 l -15.3,6.78 c -0.27,0.12 -0.41,0.42 -0.33,0.71 l 2.44,8.13 c 0.09,0.29 0.39,0.47 0.68,0.41 l 2.87,-0.58 c 0.27,-0.06 0.53,0.12 0.59,0.39 0.06,0.27 -0.12,0.53 -0.39,0.59 l -2.87,0.58 c -0.11,0.02 -0.21,0.03 -0.32,0.03 z"
     fill="#231f20"
     id="path116" />
</svg>
