<?xml version="1.0" encoding="UTF-8" standalone="no"?>
<svg
   id="a"
   width="500"
   height="682.89001"
   viewBox="0 0 500 682.89"
   version="1.1"
   sodipodi:docname="New-notification.svg"
   inkscape:version="1.3.2 (091e20e, 2023-11-25, custom)"
   xmlns:inkscape="http://www.inkscape.org/namespaces/inkscape"
   xmlns:sodipodi="http://sodipodi.sourceforge.net/DTD/sodipodi-0.dtd"
   xmlns="http://www.w3.org/2000/svg"
   xmlns:svg="http://www.w3.org/2000/svg">
  <defs
     id="defs70" />
  <sodipodi:namedview
     id="namedview70"
     pagecolor="#505050"
     bordercolor="#eeeeee"
     borderopacity="1"
     inkscape:showpageshadow="0"
     inkscape:pageopacity="0"
     inkscape:pagecheckerboard="0"
     inkscape:deskcolor="#505050"
     inkscape:zoom="0.55211605"
     inkscape:cx="161.19799"
     inkscape:cy="406.61741"
     inkscape:window-width="1920"
     inkscape:window-height="1009"
     inkscape:window-x="-8"
     inkscape:window-y="-8"
     inkscape:window-maximized="1"
     inkscape:current-layer="a" />
  <g
     id="g2"
     transform="translate(-176)">
    <path
       d="m 503.99,45.9 h -261 c -14.71,0.13 -26.53,12.15 -26.4,26.86 0,0.01 0,0.02 0,0.03 v 0 537.3 c -0.13,14.71 11.69,26.75 26.4,26.9 h 261 c 14.72,-0.15 26.55,-12.18 26.44,-26.9 V 72.79 C 530.55,58.06 518.72,46.03 503.99,45.9 Z m 9.94,547.57 c 0,14.15 -10.6,25.59 -23.66,25.59 H 256.75 c -13.09,0 -23.68,-11.44 -23.68,-25.59 V 93.16 c 0,-28.81 10.59,-30.22 23.68,-30.22 h 46.81 c 2.72,0 4.94,3.09 4.94,6.92 v 1.65 c 0,9 4.91,9 10.93,9 H 427.6 c 6.08,0 11,0 11,-9 v -1.65 c 0,-3.83 2.2,-6.92 5,-6.92 h 46.76 c 13.07,0 23.66,3.83 23.66,30.22 z"
       fill="#002346"
       id="path1" />
    <path
       d="m 242.99,637.49 c -14.96,-0.15 -27.03,-12.44 -26.9,-27.4 V 72.79 C 215.96,57.8 228.03,45.53 242.99,45.4 h 261 c 14.98,0.13 27.06,12.42 26.94,27.39 v 537.3 c 0.11,14.96 -11.98,27.25 -26.94,27.4 z m 0,-591.09 c -14.4,0.12 -26.02,11.95 -25.9,26.35 v 537.34 c -0.12,14.41 11.5,26.25 25.91,26.4 h 260.99 c 14.4,-0.15 26.04,-11.99 25.94,-26.4 V 72.79 C 530.05,58.36 518.41,46.52 503.99,46.4 Z M 490.27,619.56 H 256.75 c -13.33,0 -24.18,-11.7 -24.18,-26.09 V 93.16 c 0,-28.52 10.02,-30.72 24.18,-30.72 h 46.81 c 3,0 5.44,3.33 5.44,7.42 v 1.65 c 0,8.5 4.37,8.5 10.43,8.5 H 427.6 c 6.1,0 10.5,0 10.5,-8.5 v -1.65 c 0,-4.16 2.42,-7.42 5.5,-7.42 h 46.76 c 14.5,0 24.16,5.22 24.16,30.72 l -0.09,500.31 c 0,14.39 -10.84,26.09 -24.16,26.09 z M 256.75,63.44 c -13.57,0 -23.18,2.13 -23.18,29.72 v 500.31 c 0,13.83 10.4,25.09 23.18,25.09 h 233.52 c 12.77,0 23.16,-11.25 23.16,-25.09 l 0.09,-500.31 c 0,-24.75 -8.86,-29.72 -23.16,-29.72 H 443.6 c -2.48,0 -4.5,2.88 -4.5,6.42 v 1.65 c 0,9.5 -5.33,9.5 -11.5,9.5 H 319.43 c -5.88,0 -11.43,0 -11.43,-9.5 v -1.65 c 0,-3.54 -1.99,-6.42 -4.44,-6.42 z"
       fill="#002346"
       id="path2" />
  </g>
  <path
     d="m 337.93,93.59 v 500.32 c 0,14.14 -10.59,25.58 -23.65,25.58 H 80.77 c -13.09,0 -23.69,-11.44 -23.69,-25.58 V 93.59 c 0,-28.81 10.6,-30.22 23.69,-30.22 h 46.79 c 2.72,0 4.94,3.09 4.94,6.92 v 1.65 c 0,9 4.91,9 10.93,9 H 251.6 c 6.08,0 11,0 11,-9 v -1.65 c 0,-3.83 2.2,-6.92 5,-6.92 h 46.76 c 12.97,-0.01 23.57,3.83 23.57,30.22 z"
     fill="#ffffff"
     id="path3" />
  <g
     opacity="0.2"
     id="g4"
     transform="translate(-176)">
    <path
       d="m 388.25,69.3 h -29.51 c -1,0 -1.81,-0.82 -1.81,-1.82 v 0 c 0,-1.01 0.81,-1.82 1.82,-1.82 h 29.51 c 0.99,0.03 1.77,0.83 1.77,1.82 v 0 c 0,0.99 -0.79,1.8 -1.78,1.82 z"
       id="path4" />
  </g>
  <path
     d="m 316.85,79.6 h -15.16 v -7 h 15.16 z m -14.39,-0.77 h 13.61 v -5.47 h -13.61 z"
     fill="#002346"
     id="path5" />
  <rect
     x="302.95001"
     y="73.779999"
     width="9.7700005"
     height="4.6300001"
     fill="#002346"
     id="rect5" />
  <rect
     x="316.85001"
     y="74.209999"
     width="1.34"
     height="3.75"
     fill="#002346"
     id="rect6" />
  <path
     d="m 152.39,191.5 v 3.74 h -20.46 v -3.74 h 8.59 v -25.94 c -0.47,0.61 -1.03,1.13 -1.67,1.55 -0.83,0.57 -1.7,1.08 -2.6,1.54 -0.94,0.48 -1.92,0.88 -2.93,1.21 -0.85,0.29 -1.75,0.45 -2.65,0.48 v -4 c 1.07,-0.03 2.13,-0.3 3.08,-0.79 1.08,-0.52 2.11,-1.12 3.09,-1.8 0.88,-0.6 1.72,-1.25 2.52,-1.95 0.44,-0.33 0.83,-0.74 1.14,-1.2 h 4.23 v 30.89 h 7.66 z"
     fill="#002346"
     id="path6" />
  <path
     d="m 187.36,177.47 c 0.02,2.49 -0.36,4.97 -1.14,7.33 -0.7,2.11 -1.78,4.08 -3.18,5.81 -4.89,5.99 -13.71,6.87 -19.7,1.98 -0.72,-0.59 -1.39,-1.26 -1.98,-1.98 -1.4,-1.73 -2.48,-3.7 -3.18,-5.81 -1.52,-4.78 -1.52,-9.9 0,-14.68 0.7,-2.11 1.78,-4.07 3.18,-5.79 1.31,-1.61 2.94,-2.92 4.8,-3.84 3.81,-1.86 8.26,-1.86 12.07,0 1.86,0.92 3.5,2.23 4.81,3.84 1.4,1.72 2.48,3.68 3.18,5.79 0.78,2.37 1.16,4.85 1.14,7.35 z m -4.17,0 c 0.03,-2.01 -0.25,-4.01 -0.82,-5.93 -0.48,-1.64 -1.24,-3.18 -2.25,-4.56 -0.93,-1.24 -2.12,-2.26 -3.48,-3 -2.81,-1.4 -6.12,-1.4 -8.93,0 -1.37,0.73 -2.56,1.75 -3.48,3 -1.02,1.37 -1.79,2.92 -2.27,4.56 -1.09,3.87 -1.09,7.97 0,11.84 0.47,1.67 1.24,3.24 2.27,4.63 0.92,1.23 2.11,2.23 3.48,2.92 4.29,2.23 9.56,0.94 12.35,-3 1.02,-1.4 1.78,-2.97 2.25,-4.63 0.57,-1.9 0.85,-3.87 0.83,-5.85 z"
     fill="#002346"
     id="path7" />
  <path
     d="m 194.62,169.79 v -5.91 h 3.5 v 5.91 z m 0,25.37 v -5.91 h 3.5 v 5.91 z"
     fill="#002346"
     id="path8" />
  <path
     d="m 222.76,180.91 c 2.51,0.36 4.79,1.65 6.38,3.63 1.63,2.08 2.47,4.66 2.37,7.3 0.02,1.72 -0.32,3.42 -1,5 -0.65,1.48 -1.62,2.8 -2.84,3.86 -1.3,1.1 -2.8,1.95 -4.42,2.48 -1.84,0.61 -3.76,0.9 -5.7,0.87 -2.78,0.06 -5.53,-0.57 -8,-1.84 -2.21,-1.13 -4.02,-2.92 -5.19,-5.11 l 2.84,-2.59 c 0.83,1.76 2.18,3.24 3.86,4.23 1.99,1.11 4.25,1.64 6.53,1.54 2.56,0.15 5.09,-0.64 7.12,-2.21 1.79,-1.59 2.74,-3.92 2.59,-6.31 0.13,-2.49 -0.87,-4.9 -2.71,-6.58 -2.23,-1.75 -5.02,-2.62 -7.85,-2.42 h -1.54 v -3.51 h 1.64 c 2.55,0.16 5.07,-0.6 7.09,-2.16 1.64,-1.38 2.56,-3.44 2.49,-5.59 0.02,-1.1 -0.21,-2.19 -0.66,-3.2 -0.44,-0.9 -1.08,-1.7 -1.86,-2.33 -0.83,-0.64 -1.77,-1.12 -2.78,-1.42 -1.13,-0.32 -2.3,-0.48 -3.47,-0.48 -2.13,-0.04 -4.22,0.49 -6.07,1.55 -1.72,0.98 -3.1,2.47 -3.95,4.26 l -2.65,-2.55 c 0.5,-1.07 1.19,-2.04 2.05,-2.86 0.89,-0.88 1.9,-1.62 3,-2.2 1.19,-0.63 2.45,-1.11 3.75,-1.42 1.38,-0.35 2.8,-0.52 4.23,-0.51 1.73,-0.02 3.45,0.24 5.1,0.77 1.46,0.48 2.82,1.23 4,2.21 1.11,0.93 2,2.1 2.62,3.41 0.63,1.38 0.95,2.89 0.93,4.41 0,1.18 -0.18,2.36 -0.54,3.48 -0.66,2.16 -2.1,4 -4.05,5.14 -1.02,0.6 -2.14,0.99 -3.31,1.15 z"
     fill="#002346"
     id="path9" />
  <path
     d="m 255.8,202.83 v -10.8 h -20.16 v -3.62 l 21.44,-27.79 h 2.78 v 27.79 h 5.33 v 3.76 h -5.33 v 10.8 z m -15.76,-14.42 h 16.19 v -21.27 z"
     fill="#002346"
     id="path10" />
  <path
     d="m 145.93,213.67 h -4.51 v 11.42 h -1.24 v -11.4 h -4.44 v -1.1 h 10.19 z"
     fill="#002346"
     id="path11" />
  <path
     d="m 148.56,225.24 c -0.86,0.06 -1.69,-0.32 -2.22,-1 -0.55,-0.9 -0.8,-1.95 -0.73,-3 v -5.37 h 1.19 v 5.22 c 0,2.06 0.71,3.09 2.13,3.09 0.34,0 0.68,-0.06 1,-0.17 0.34,-0.12 0.65,-0.29 0.94,-0.51 0.29,-0.23 0.55,-0.5 0.77,-0.8 0.24,-0.3 0.43,-0.64 0.56,-1 v -5.75 h 1.18 v 7.61 c 0,0.32 0.16,0.49 0.44,0.49 v 1.04 h -0.53 c -0.26,0 -0.51,-0.1 -0.69,-0.29 -0.19,-0.21 -0.28,-0.48 -0.27,-0.76 v -1 c -0.77,1.38 -2.23,2.24 -3.81,2.24 z"
     fill="#002346"
     id="path12" />
  <path
     d="m 160.09,225.24 c -0.63,0 -1.25,-0.12 -1.83,-0.37 -1.11,-0.51 -1.98,-1.44 -2.41,-2.58 -0.23,-0.59 -0.35,-1.21 -0.34,-1.84 0,-0.62 0.11,-1.24 0.34,-1.82 0.21,-0.57 0.53,-1.1 0.94,-1.55 0.42,-0.42 0.91,-0.76 1.45,-1 0.58,-0.25 1.21,-0.38 1.84,-0.37 1.24,-0.03 2.43,0.48 3.26,1.4 0.4,0.45 0.72,0.97 0.94,1.54 0.22,0.57 0.33,1.19 0.32,1.8 v 0.27 c 0,0.06 0,0.13 0,0.19 h -7.83 c 0.03,0.47 0.14,0.94 0.34,1.37 0.35,0.81 1,1.46 1.82,1.81 0.4,0.17 0.83,0.26 1.26,0.25 0.3,0 0.59,-0.04 0.88,-0.12 0.28,-0.08 0.55,-0.19 0.81,-0.33 0.25,-0.14 0.47,-0.32 0.67,-0.52 0.19,-0.19 0.35,-0.43 0.45,-0.68 l 1,0.28 c -0.15,0.34 -0.35,0.65 -0.61,0.92 -0.26,0.29 -0.56,0.53 -0.89,0.73 -0.36,0.2 -0.74,0.36 -1.13,0.48 -0.42,0.1 -0.85,0.15 -1.28,0.14 z m 3.37,-5.24 c -0.05,-0.9 -0.44,-1.75 -1.08,-2.39 -0.29,-0.29 -0.63,-0.52 -1,-0.68 -0.4,-0.17 -0.82,-0.25 -1.25,-0.25 -0.43,0 -0.86,0.08 -1.26,0.25 -0.37,0.16 -0.71,0.39 -1,0.68 -0.31,0.31 -0.55,0.67 -0.73,1.07 -0.17,0.42 -0.28,0.87 -0.32,1.32 z"
     fill="#002346"
     id="path13" />
  <path
     d="m 169.5,225.24 c -0.71,0 -1.42,-0.12 -2.1,-0.34 -0.64,-0.22 -1.24,-0.56 -1.75,-1 l 0.54,-0.82 c 0.46,0.41 0.98,0.75 1.55,1 0.55,0.2 1.13,0.31 1.71,0.31 0.62,0.04 1.23,-0.12 1.76,-0.45 0.43,-0.28 0.68,-0.76 0.66,-1.27 0.01,-0.23 -0.05,-0.46 -0.18,-0.65 -0.13,-0.19 -0.31,-0.34 -0.51,-0.44 -0.28,-0.15 -0.57,-0.26 -0.87,-0.34 -0.34,-0.11 -0.74,-0.2 -1.2,-0.31 -0.46,-0.11 -1,-0.27 -1.37,-0.39 -0.35,-0.1 -0.69,-0.25 -1,-0.45 -0.24,-0.14 -0.43,-0.35 -0.56,-0.6 -0.13,-0.28 -0.19,-0.58 -0.18,-0.89 -0.01,-0.42 0.08,-0.84 0.28,-1.22 0.16,-0.35 0.41,-0.65 0.72,-0.87 0.33,-0.24 0.7,-0.41 1.1,-0.52 0.43,-0.12 0.88,-0.17 1.33,-0.17 0.65,-0.01 1.3,0.1 1.91,0.34 0.53,0.19 1,0.5 1.39,0.91 l -0.59,0.69 c -0.34,-0.36 -0.76,-0.63 -1.23,-0.78 -0.49,-0.19 -1.02,-0.28 -1.55,-0.27 -0.3,0 -0.59,0.03 -0.88,0.1 -0.25,0.06 -0.49,0.16 -0.71,0.3 -0.43,0.29 -0.68,0.78 -0.66,1.3 0,0.21 0.04,0.41 0.12,0.6 0.1,0.16 0.23,0.3 0.4,0.39 0.22,0.13 0.46,0.23 0.71,0.31 l 1.05,0.28 c 0.59,0.13 1.1,0.27 1.55,0.41 0.39,0.12 0.76,0.29 1.11,0.5 0.28,0.16 0.52,0.4 0.68,0.68 0.16,0.31 0.24,0.65 0.23,1 0.01,0.79 -0.36,1.54 -1,2 -0.73,0.47 -1.59,0.7 -2.46,0.66 z"
     fill="#002346"
     id="path14" />
  <path
     d="m 178.77,225.24 c -0.61,0 -1.21,-0.13 -1.76,-0.39 -0.52,-0.24 -0.99,-0.58 -1.38,-1 -0.79,-0.91 -1.23,-2.08 -1.24,-3.29 0,-0.62 0.11,-1.24 0.32,-1.83 0.2,-0.56 0.49,-1.09 0.87,-1.55 0.4,-0.39 0.87,-0.71 1.39,-0.93 0.52,-0.24 1.09,-0.37 1.67,-0.37 0.73,-0.01 1.45,0.2 2.06,0.61 0.58,0.4 1.06,0.93 1.41,1.54 v -5.64 h 1.19 v 11.29 c 0,0.32 0.14,0.49 0.42,0.49 v 1 h -0.42 c -0.27,0 -0.53,-0.09 -0.74,-0.26 -0.2,-0.17 -0.31,-0.41 -0.31,-0.67 v -0.89 c -0.38,0.6 -0.92,1.09 -1.55,1.42 -0.59,0.33 -1.26,0.49 -1.93,0.47 z m 0.27,-1.05 c 0.32,-0.01 0.64,-0.07 0.94,-0.17 0.34,-0.12 0.65,-0.29 0.94,-0.5 0.29,-0.19 0.54,-0.43 0.74,-0.71 0.2,-0.26 0.33,-0.57 0.39,-0.89 v -2.83 c -0.12,-0.32 -0.29,-0.62 -0.51,-0.88 -0.23,-0.27 -0.49,-0.52 -0.77,-0.74 -0.29,-0.2 -0.6,-0.37 -0.93,-0.49 -0.32,-0.12 -0.66,-0.17 -1,-0.17 -0.47,0 -0.93,0.1 -1.34,0.32 -0.39,0.2 -0.73,0.48 -1,0.83 -0.29,0.35 -0.52,0.75 -0.66,1.18 -0.16,0.44 -0.23,0.9 -0.23,1.37 0,0.96 0.35,1.88 1,2.58 0.3,0.34 0.67,0.61 1.08,0.8 0.42,0.2 0.88,0.3 1.35,0.3 z"
     fill="#002346"
     id="path15" />
  <path
     d="m 188.24,225.24 c -0.41,0 -0.81,-0.07 -1.19,-0.22 -0.37,-0.13 -0.71,-0.33 -1,-0.6 -0.28,-0.26 -0.5,-0.57 -0.65,-0.91 -0.14,-0.35 -0.22,-0.73 -0.22,-1.11 0,-0.39 0.1,-0.77 0.28,-1.12 0.19,-0.35 0.46,-0.65 0.79,-0.88 0.37,-0.26 0.78,-0.45 1.22,-0.57 0.5,-0.13 1.02,-0.2 1.54,-0.2 0.48,0 0.95,0.05 1.42,0.13 0.44,0.07 0.87,0.19 1.28,0.35 v -0.82 c 0.04,-0.71 -0.2,-1.4 -0.68,-1.93 -0.5,-0.49 -1.19,-0.75 -1.89,-0.71 -0.5,0 -0.99,0.1 -1.46,0.28 -0.54,0.2 -1.06,0.47 -1.54,0.8 l -0.43,-0.78 c 1,-0.73 2.2,-1.15 3.44,-1.19 1,-0.04 1.98,0.32 2.72,1 0.69,0.72 1.05,1.69 1,2.68 v 4.13 c 0,0.33 0.16,0.5 0.45,0.5 v 1 h -0.46 c -0.26,0.02 -0.51,-0.06 -0.71,-0.22 -0.18,-0.16 -0.28,-0.39 -0.27,-0.63 v -0.73 c -0.4,0.55 -0.93,0.98 -1.54,1.27 -0.66,0.31 -1.37,0.48 -2.1,0.48 z m 0.29,-0.91 c 0.59,0.01 1.18,-0.11 1.72,-0.36 0.47,-0.2 0.88,-0.52 1.18,-0.93 0.1,-0.1 0.18,-0.22 0.24,-0.34 0.02,-0.11 0.02,-0.23 0,-0.34 v -1.54 c -0.4,-0.15 -0.82,-0.27 -1.24,-0.35 -0.43,-0.08 -0.87,-0.13 -1.31,-0.13 -0.72,-0.03 -1.43,0.16 -2.05,0.53 -0.5,0.28 -0.81,0.81 -0.79,1.39 0,0.27 0.05,0.55 0.15,0.8 0.12,0.24 0.28,0.45 0.47,0.63 0.2,0.19 0.43,0.34 0.69,0.44 0.3,0.13 0.62,0.2 0.94,0.2 z"
     fill="#002346"
     id="path16" />
  <path
     d="m 195.82,227.88 h 0.52 c 0.17,0 0.35,-0.02 0.51,-0.08 0.16,-0.09 0.28,-0.23 0.36,-0.39 0.16,-0.28 0.29,-0.56 0.4,-0.86 0.14,-0.37 0.36,-0.88 0.62,-1.54 l -4,-9.16 h 1.26 l 3.39,8 3.09,-8 h 1.24 l -4.76,11.81 c -0.13,0.34 -0.35,0.65 -0.63,0.88 -0.35,0.28 -0.78,0.41 -1.22,0.39 h -0.67 z"
     fill="#002346"
     id="path17" />
  <path
     d="m 204.17,226.49 0.3,-1.47 h -0.41 v -1.68 h 1.16 v 1.68 l -0.43,1.47 z"
     fill="#002346"
     id="path18" />
  <path
     d="m 220.93,220.96 c 0,0.57 -0.11,1.14 -0.34,1.67 -0.22,0.51 -0.54,0.98 -0.94,1.37 -0.41,0.39 -0.88,0.69 -1.4,0.91 -0.56,0.22 -1.15,0.33 -1.75,0.33 -0.62,0.01 -1.23,-0.11 -1.8,-0.36 -0.55,-0.22 -1.03,-0.56 -1.42,-1 -0.42,-0.48 -0.73,-1.04 -0.93,-1.64 -0.23,-0.71 -0.34,-1.45 -0.32,-2.19 -0.02,-1.11 0.09,-2.22 0.32,-3.31 0.18,-0.83 0.5,-1.63 0.94,-2.36 0.36,-0.58 0.86,-1.06 1.45,-1.39 0.58,-0.31 1.23,-0.47 1.89,-0.46 0.78,-0.02 1.56,0.2 2.22,0.62 0.67,0.4 1.21,0.99 1.54,1.7 l -0.77,0.71 c -0.46,-1.22 -1.64,-2.02 -2.95,-2 -0.49,0 -0.98,0.12 -1.4,0.37 -0.45,0.26 -0.82,0.63 -1.08,1.07 -0.34,0.52 -0.58,1.1 -0.71,1.71 -0.18,0.75 -0.26,1.53 -0.25,2.3 0.25,-0.68 0.72,-1.26 1.33,-1.65 0.63,-0.41 1.37,-0.63 2.13,-0.62 0.58,0 1.15,0.11 1.68,0.34 0.51,0.21 0.97,0.51 1.36,0.89 0.8,0.79 1.24,1.88 1.2,3 v 0 z m -4.4,3.22 c 0.44,0 0.87,-0.08 1.27,-0.25 0.37,-0.17 0.71,-0.4 1,-0.69 0.29,-0.29 0.53,-0.63 0.7,-1 0.17,-0.39 0.26,-0.82 0.26,-1.25 0,-0.44 -0.09,-0.87 -0.26,-1.27 -0.18,-0.37 -0.42,-0.71 -0.71,-1 -0.3,-0.29 -0.66,-0.53 -1.05,-0.7 -0.8,-0.35 -1.7,-0.35 -2.5,0 -0.39,0.17 -0.75,0.4 -1.05,0.7 -0.63,0.59 -0.99,1.41 -1,2.28 0,0.43 0.09,0.85 0.28,1.24 0.17,0.38 0.41,0.72 0.71,1 0.29,0.3 0.63,0.54 1,0.71 0.42,0.17 0.88,0.25 1.34,0.23 z"
     fill="#002346"
     id="path19" />
  <path
     d="m 238.72,225.09 v -10.27 l -4.55,7.93 h -0.71 l -4.53,-7.93 v 10.27 h -1.24 v -12.5 h 1.24 l 4.88,8.54 4.89,-8.54 h 1.23 v 12.5 z"
     fill="#002346"
     id="path20" />
  <path
     d="m 245.12,225.24 c -0.41,0 -0.83,-0.07 -1.21,-0.22 -0.38,-0.12 -0.72,-0.33 -1,-0.6 -0.28,-0.26 -0.5,-0.57 -0.65,-0.91 -0.16,-0.35 -0.24,-0.73 -0.23,-1.11 0,-0.39 0.09,-0.78 0.27,-1.12 0.21,-0.34 0.49,-0.64 0.81,-0.88 0.37,-0.26 0.77,-0.45 1.2,-0.57 0.5,-0.13 1.02,-0.2 1.54,-0.2 0.48,0 0.96,0.05 1.44,0.13 0.44,0.07 0.87,0.19 1.28,0.35 v -0.82 c 0.04,-0.71 -0.21,-1.41 -0.69,-1.93 -0.51,-0.49 -1.2,-0.75 -1.9,-0.71 -0.49,0 -0.98,0.1 -1.44,0.28 -0.54,0.21 -1.06,0.48 -1.54,0.8 l -0.42,-0.78 c 1,-0.73 2.2,-1.15 3.44,-1.19 1,-0.04 1.98,0.32 2.71,1 0.69,0.72 1.05,1.69 1,2.68 v 4.13 c 0,0.33 0.16,0.5 0.45,0.5 v 1 h -0.46 c -0.26,0.02 -0.51,-0.06 -0.71,-0.22 -0.18,-0.16 -0.28,-0.39 -0.28,-0.63 v -0.73 c -0.4,0.54 -0.93,0.98 -1.54,1.27 -0.65,0.31 -1.35,0.47 -2.07,0.48 z m 0.27,-0.91 c 0.59,0.01 1.18,-0.11 1.72,-0.36 0.48,-0.19 0.89,-0.51 1.19,-0.93 0.1,-0.1 0.18,-0.21 0.24,-0.34 0.02,-0.11 0.02,-0.23 0,-0.34 v -1.54 c -0.41,-0.15 -0.82,-0.27 -1.25,-0.35 -0.43,-0.08 -0.86,-0.13 -1.29,-0.13 -0.73,-0.02 -1.44,0.16 -2.07,0.53 -0.5,0.28 -0.81,0.81 -0.79,1.39 0,0.28 0.06,0.55 0.17,0.8 0.11,0.24 0.27,0.45 0.46,0.63 0.2,0.19 0.44,0.34 0.7,0.44 0.29,0.13 0.6,0.2 0.92,0.2 z"
     fill="#002346"
     id="path21" />
  <path
     d="m 252.7,227.88 h 0.52 c 0.17,0 0.34,-0.02 0.5,-0.08 0.15,-0.1 0.28,-0.23 0.37,-0.39 0.14,-0.28 0.27,-0.57 0.38,-0.86 0.16,-0.37 0.36,-0.88 0.64,-1.54 l -4,-9.1 h 1.23 l 3.4,8 3.09,-8 h 1.1 l -4.76,11.81 c -0.13,0.35 -0.34,0.65 -0.63,0.88 -0.35,0.27 -0.78,0.41 -1.22,0.39 h -0.73 z"
     fill="#002346"
     id="path22" />
  <path
     d="m 301.39,593.52 v 0 c -9.27,0 -16.8,-7.51 -16.81,-16.78 v 0 c 0,-9.29 7.52,-16.81 16.81,-16.82 v 0 c 9.28,0.01 16.81,7.54 16.82,16.82 v 0 c 0,9.29 -7.53,16.81 -16.82,16.81 z"
     fill="#002346"
     id="path23" />
  <rect
     x="291.14001"
     y="571.64001"
     width="20.5"
     height="12.52"
     fill="#ffffff"
     id="rect23" />
  <polygon
     points="481.47,569.25 482.49,571.64 472.3,571.64 473.3,569.25 "
     fill="#ffffff"
     id="polygon23"
     transform="translate(-176)" />
  <path
     d="m 306.15,577.91 c 0,2.63 -2.12,4.76 -4.75,4.77 -2.63,0 -4.76,-2.12 -4.77,-4.75 0,-2.63 2.12,-4.76 4.75,-4.77 v 0 c 2.62,0 4.75,2.12 4.76,4.75 z"
     fill="#002346"
     id="path24" />
  <path
     d="m 305.11,577.91 c 0,2.04 -1.65,3.69 -3.69,3.69 -2.04,0 -3.69,-1.65 -3.69,-3.69 0,-2.04 1.65,-3.69 3.69,-3.69 2.04,0 3.69,1.65 3.69,3.69 z"
     fill="#ffffff"
     id="path25" />
  <rect
     x="308.45999"
     y="572.71002"
     width="1.98"
     height="1.13"
     fill="#002346"
     id="rect25" />
  <rect
     x="291.84"
     y="570.71997"
     width="1.95"
     height="0.56999999"
     fill="#ffffff"
     id="rect26" />
  <path
     d="m 92.19,593.52 v 0 c -9.28,0 -16.8,-7.53 -16.81,-16.81 v 0 c 0.01,-9.28 7.53,-16.8 16.81,-16.82 v 0 c 9.3,0 16.84,7.52 16.85,16.82 v 0 c 0,9.29 -7.53,16.81 -16.82,16.81 z"
     fill="#002346"
     id="path26" />
  <rect
     x="87.980011"
     y="574.29999"
     width="8.2399998"
     height="13.77"
     fill="#ffffff"
     id="rect27" />
  <polygon
     points="274.49,571.1 272.39,573.59 263.81,573.59 261.72,571.1 261.72,567.92 274.49,567.92 "
     fill="#ffffff"
     id="polygon27"
     transform="translate(-176)" />
  <rect
     x="85.720001"
     y="565.34003"
     width="12.77"
     height="1.8200001"
     fill="#ffffff"
     id="rect28" />
  <g
     id="g29"
     transform="translate(-176)">
    <path
       d="m 356.65,578.85 c 0,2.04 -1.65,3.7 -3.69,3.71 -2.04,0 -3.7,-1.65 -3.71,-3.69 0,-2.04 1.65,-3.7 3.69,-3.71 v 0 c 2.03,0 3.67,1.63 3.68,3.66 v 0 c 0,0 0.02,0.03 0.02,0.03 z"
       fill="#ffffff"
       id="path28" />
    <path
       d="m 352.94,583.06 c -1.12,0 -2.17,-0.43 -2.96,-1.22 -0.8,-0.79 -1.24,-1.84 -1.24,-2.97 0,-1.13 0.43,-2.18 1.22,-2.97 0.79,-0.79 1.84,-1.23 2.97,-1.24 h 0.01 c 1.12,0 2.16,0.43 2.95,1.21 0.74,0.74 1.17,1.7 1.22,2.74 v 0 c 0,0 0.02,0.23 0.02,0.23 0,1.12 -0.43,2.18 -1.22,2.97 -0.79,0.79 -1.84,1.23 -2.97,1.24 h -0.01 z m 0.01,-7.4 v 0 c -0.87,0 -1.67,0.34 -2.27,0.94 -0.6,0.61 -0.93,1.41 -0.93,2.27 0,0.85 0.34,1.66 0.94,2.26 0.6,0.6 1.4,0.93 2.26,0.93 v 0 c 0.85,0 1.66,-0.34 2.26,-0.94 0.55,-0.56 0.88,-1.28 0.93,-2.06 h -0.01 v -0.22 c 0,-0.86 -0.33,-1.65 -0.93,-2.25 -0.6,-0.59 -1.39,-0.92 -2.23,-0.92 z"
       fill="#002346"
       id="path29" />
  </g>
  <g
     id="g30"
     transform="translate(-176)">
    <circle
       cx="373.51001"
       cy="578.84998"
       r="5.5799999"
       fill="#23a6f0"
       id="circle29" />
    <path
       d="m 373.51,584.93 c -3.35,0 -6.08,-2.73 -6.08,-6.08 0,-3.35 2.73,-6.08 6.08,-6.08 3.35,0 6.08,2.73 6.08,6.08 0,3.35 -2.73,6.08 -6.08,6.08 z m 0,-11.16 c -2.8,0 -5.08,2.28 -5.08,5.08 0,2.8 2.28,5.08 5.08,5.08 2.8,0 5.08,-2.28 5.08,-5.08 0,-2.8 -2.28,-5.08 -5.08,-5.08 z"
       fill="#002346"
       id="path30" />
  </g>
  <g
     id="g32"
     transform="translate(-176)">
    <path
       d="m 397.75,578.85 c 0,2.04 -1.65,3.7 -3.69,3.71 -2.04,0 -3.7,-1.65 -3.71,-3.69 0,-2.04 1.65,-3.7 3.69,-3.71 v 0 c 2.04,0 3.69,1.65 3.7,3.69 z"
       fill="#ffffff"
       id="path31" />
    <path
       d="m 394.04,583.06 c -1.12,0 -2.17,-0.43 -2.96,-1.22 -0.8,-0.79 -1.24,-1.84 -1.24,-2.97 0,-1.13 0.43,-2.18 1.22,-2.97 0.79,-0.79 1.84,-1.23 2.97,-1.24 2.32,0 4.21,1.88 4.21,4.19 0,1.12 -0.43,2.18 -1.22,2.97 -0.79,0.79 -1.84,1.23 -2.97,1.24 z m 0,-7.4 c -0.86,0 -1.67,0.34 -2.27,0.94 -0.6,0.61 -0.93,1.41 -0.93,2.27 0,0.85 0.34,1.66 0.94,2.26 0.6,0.6 1.4,0.93 2.26,0.93 v 0 c 0.85,0 1.66,-0.34 2.26,-0.94 0.6,-0.61 0.93,-1.41 0.93,-2.27 0,-1.76 -1.44,-3.19 -3.2,-3.19 z"
       fill="#002346"
       id="path32" />
  </g>
  <g
     id="g34"
     transform="translate(-176)">
    <path
       d="m 464.93,175.59 c -7.21,0 -13.06,5.85 -13.06,13.06 v 61.91 c 0.03,7.17 5.83,12.97 13,13 h 24.16 v 13.38 l 26.2,-13.37 h 120.89 c 7.19,0 13.03,-5.81 13.06,-13 v -62 c 0,-7.18 -5.82,-13 -13,-13 -0.02,0 -0.04,0 -0.06,0 z"
       fill="#23a6f0"
       id="path33" />
    <path
       d="m 488.53,277.76 v -13.7 h -23.66 c -7.41,-0.03 -13.47,-6.09 -13.5,-13.5 v -61.91 c 0,-7.48 6.08,-13.56 13.56,-13.56 l 171.19,-0.02 c 7.5,0 13.56,6.06 13.56,13.5 v 62 c -0.03,7.45 -6.12,13.5 -13.56,13.5 H 515.35 Z m -23.6,-101.67 c -6.93,0 -12.56,5.63 -12.56,12.56 v 61.91 c 0.03,6.86 5.64,12.47 12.5,12.5 h 24.66 v 13.06 l 25.58,-13.05 h 121.01 c 6.89,0 12.53,-5.61 12.56,-12.5 v -62 c 0,-6.89 -5.61,-12.5 -12.5,-12.5 z"
       fill="#002346"
       id="path34" />
  </g>
  <g
     id="g35"
     transform="translate(-176)">
    <rect
       x="257.67001"
       y="309.79999"
       width="229.50999"
       height="73.580002"
       rx="11.42"
       ry="11.42"
       fill="#25344f"
       id="rect34" />
    <path
       d="M 475.76,383.88 H 269.09 c -6.57,0 -11.92,-5.35 -11.92,-11.92 v -50.74 c 0,-6.57 5.35,-11.92 11.92,-11.92 h 206.67 c 6.57,0 11.92,5.35 11.92,11.92 v 50.74 c 0,6.57 -5.35,11.92 -11.92,11.92 z M 269.09,310.3 c -6.02,0 -10.92,4.9 -10.92,10.92 v 50.74 c 0,6.02 4.9,10.92 10.92,10.92 h 206.67 c 6.02,0 10.92,-4.9 10.92,-10.92 v -50.74 c 0,-6.02 -4.9,-10.92 -10.92,-10.92 z"
       fill="#002346"
       id="path35" />
  </g>
  <path
     d="m 294.36,325.4 c -0.13,0 -0.26,-0.05 -0.36,-0.15 -0.19,-0.2 -0.19,-0.52 0.01,-0.71 q 6.36,-6.14 6.57,-6.14 c 0.28,0 0.5,0.22 0.5,0.5 0,0.15 -0.07,0.29 -0.17,0.38 -0.22,0.2 -4.54,4.38 -6.2,5.98 -0.1,0.09 -0.22,0.14 -0.35,0.14 z"
     fill="#002346"
     id="path36" />
  <path
     d="m 300.71,325.62 c -0.15,0 -0.29,-0.07 -0.38,-0.17 -0.2,-0.22 -4.38,-4.55 -5.98,-6.21 -0.19,-0.2 -0.19,-0.51 0.01,-0.71 0.2,-0.19 0.52,-0.19 0.71,0.01 q 6.14,6.36 6.14,6.58 c 0,0.28 -0.22,0.5 -0.5,0.5 z"
     fill="#002346"
     id="path37" />
  <rect
     x="91.779999"
     y="324.5"
     width="42.709999"
     height="42.709999"
     rx="6.2399998"
     ry="6.2399998"
     fill="#002346"
     id="rect37" />
  <g
     id="g39"
     transform="translate(-176)">
    <path
       d="m 305.42,318.47 c 4.1,-1.64 8.76,0.36 10.4,4.46 1.64,4.1 -0.36,8.76 -4.46,10.4 -4.1,1.64 -8.76,-0.36 -10.4,-4.46 0,-0.02 -0.02,-0.04 -0.03,-0.07 -1.6,-4.08 0.39,-8.69 4.46,-10.33 z"
       fill="#23a6f0"
       id="path38" />
    <path
       d="m 308.39,334.4 c -3.38,0 -6.58,-2.03 -7.91,-5.35 -1.71,-4.39 0.41,-9.31 4.71,-11.04 l 0.12,-0.04 c 4.33,-1.67 9.23,0.46 10.95,4.78 1.74,4.35 -0.39,9.31 -4.74,11.05 -1.03,0.41 -2.09,0.61 -3.14,0.61 z m -2.91,-15.43 c -3.73,1.56 -5.57,5.87 -4.09,9.65 1.56,3.9 5.93,5.78 9.77,4.25 3.84,-1.53 5.72,-5.91 4.18,-9.75 -1.54,-3.84 -5.91,-5.72 -9.75,-4.18 l -0.12,0.04 z"
       fill="#002346"
       id="path39" />
  </g>
  <path
     d="m 131.48,328.54 c 0,0.28 -0.23,0.5 -0.5,0.5 h -3.26 c -0.14,0 -0.28,-0.05 -0.37,-0.16 -0.19,-0.2 -0.19,-0.51 0,-0.71 v 0 l 2.7,-2.45 c 0.25,-0.22 0.4,-0.55 0.39,-0.89 0,-0.29 -0.11,-0.57 -0.3,-0.78 -0.23,-0.25 -0.55,-0.39 -0.89,-0.39 -0.29,0 -0.57,0.12 -0.79,0.31 l -0.28,0.25 c -0.2,0.2 -0.52,0.2 -0.72,0 -0.19,-0.21 -0.17,-0.53 0.04,-0.71 0,0 0,0 0,0 l 0.27,-0.24 c 0.39,-0.36 0.9,-0.56 1.43,-0.57 1.21,0 2.19,0.97 2.2,2.17 0,0.62 -0.26,1.21 -0.71,1.63 v 0 l -1.74,1.56 h 1.96 c 0.28,-0.04 0.53,0.16 0.57,0.43 0,0 0,0.01 0,0.02 0,0.01 0,0.02 0,0.04 z"
     fill="#002346"
     id="path40" />
  <path
     d="m 136.22,325.14 c 0.43,0.42 0.66,1 0.65,1.61 0,1.25 -1,2.27 -2.24,2.28 -0.6,0 -1.18,-0.23 -1.61,-0.65 v 0 c -0.2,-0.21 -0.2,-0.53 0,-0.74 0.2,-0.2 0.53,-0.2 0.73,0 0.23,0.23 0.55,0.36 0.88,0.36 0.33,0 0.65,-0.13 0.89,-0.36 0.47,-0.49 0.47,-1.26 0,-1.75 -0.24,-0.23 -0.55,-0.36 -0.88,-0.36 -0.14,0 -0.28,-0.05 -0.37,-0.16 v 0 c -0.19,-0.2 -0.19,-0.51 0,-0.71 v 0 l 0.93,-0.93 h -1.43 c -0.28,0 -0.51,-0.23 -0.51,-0.51 0,-0.28 0.22,-0.51 0.5,-0.51 0,0 0.01,0 0.02,0 h 2.7 c 0.28,0 0.52,0.22 0.52,0.5 0,0 0,0 0,0 0,0.08 0,0.16 0,0.24 -0.03,0.05 -0.06,0.09 -0.1,0.13 l -1.21,1.14 c 0.21,0.11 0.39,0.25 0.54,0.42 z"
     fill="#002346"
     id="path41" />
  <g
     id="g44"
     transform="translate(-176)">
    <rect
       x="325.92999"
       y="324.5"
       width="76.389999"
       height="6.1599998"
       fill="#002346"
       id="rect41" />
    <rect
       x="325.92999"
       y="337.54999"
       width="140.95"
       height="4.3499999"
       fill="#002346"
       id="rect42" />
    <rect
       x="325.92999"
       y="345.26001"
       width="140.95"
       height="4.3499999"
       fill="#002346"
       id="rect43" />
    <rect
       x="325.92999"
       y="352.94"
       width="140.95"
       height="4.3499999"
       fill="#002346"
       id="rect44" />
  </g>
  <path
     d="m 125.83,356.9 -1.78,-2.54 c -1.06,-1.52 -1.64,-3.33 -1.64,-5.19 v -5.68 c 0,-4.55 -3.33,-8.43 -7.83,-9.12 v -2.7 c 0,-0.7 -0.57,-1.27 -1.27,-1.27 v 0 c -0.7,0 -1.27,0.57 -1.27,1.27 v 2.66 c -4.65,0.55 -8.16,4.49 -8.16,9.17 v 5.86 c 0,2.01 -0.67,3.97 -1.91,5.56 l -1.54,1.95 z"
     fill="#ffffff"
     id="path44" />
  <path
     d="m 111.83,361.02 c 1.4,0.57 3.01,0.29 4.14,-0.71 0.47,-0.44 0.81,-1 1,-1.61 h -7.34 c 0.38,1.05 1.18,1.89 2.2,2.32 z"
     fill="#ffffff"
     id="path45" />
  <path
     d="M 453.87,194.02 H 328.16 c -0.28,0 -0.5,-0.22 -0.5,-0.5 0,-0.28 0.22,-0.5 0.5,-0.5 h 125.71 c 0.28,0 0.5,0.22 0.5,0.5 0,0.28 -0.22,0.5 -0.5,0.5 z"
     fill="#002346"
     id="path46" />
  <path
     d="M 444.39,198.97 H 328.16 c -0.28,0 -0.5,-0.22 -0.5,-0.5 0,-0.28 0.22,-0.5 0.5,-0.5 h 116.23 c 0.28,0 0.5,0.22 0.5,0.5 0,0.28 -0.22,0.5 -0.5,0.5 z"
     fill="#002346"
     id="path47" />
  <path
     d="M 434.09,204.32 H 328.16 c -0.28,0 -0.5,-0.22 -0.5,-0.5 0,-0.28 0.22,-0.5 0.5,-0.5 h 105.93 c 0.28,0 0.5,0.22 0.5,0.5 0,0.28 -0.22,0.5 -0.5,0.5 z"
     fill="#002346"
     id="path48" />
  <path
     d="m 422.96,209.27 h -94.8 c -0.28,0 -0.5,-0.22 -0.5,-0.5 0,-0.28 0.22,-0.5 0.5,-0.5 h 94.8 c 0.28,0 0.5,0.22 0.5,0.5 0,0.28 -0.22,0.5 -0.5,0.5 z"
     fill="#002346"
     id="path49" />
  <path
     d="M 453.87,226.58 H 328.16 c -0.28,0 -0.5,-0.22 -0.5,-0.5 0,-0.28 0.22,-0.5 0.5,-0.5 h 125.71 c 0.28,0 0.5,0.22 0.5,0.5 0,0.28 -0.22,0.5 -0.5,0.5 z"
     fill="#002346"
     id="path50" />
  <path
     d="M 444.39,231.53 H 328.16 c -0.28,0 -0.5,-0.22 -0.5,-0.5 0,-0.28 0.22,-0.5 0.5,-0.5 h 116.23 c 0.28,0 0.5,0.22 0.5,0.5 0,0.28 -0.22,0.5 -0.5,0.5 z"
     fill="#002346"
     id="path51" />
  <path
     d="M 434.09,236.89 H 328.16 c -0.28,0 -0.5,-0.22 -0.5,-0.5 0,-0.28 0.22,-0.5 0.5,-0.5 h 105.93 c 0.28,0 0.5,0.22 0.5,0.5 0,0.28 -0.22,0.5 -0.5,0.5 z"
     fill="#002346"
     id="path52" />
  <path
     d="m 422.96,241.83 h -94.8 c -0.28,0 -0.5,-0.22 -0.5,-0.5 0,-0.28 0.22,-0.5 0.5,-0.5 h 94.8 c 0.28,0 0.5,0.22 0.5,0.5 0,0.28 -0.22,0.5 -0.5,0.5 z"
     fill="#002346"
     id="path53" />
  <path
     d="M 313.41,212.11 H 292.7 c -0.28,0 -0.5,-0.22 -0.5,-0.5 V 190.9 c 0,-0.28 0.22,-0.5 0.5,-0.5 h 20.71 c 0.28,0 0.5,0.22 0.5,0.5 v 20.71 c 0,0.28 -0.22,0.5 -0.5,0.5 z m -20.21,-1 h 19.71 V 191.4 H 293.2 Z"
     fill="#002346"
     id="path54" />
  <path
     d="M 313.41,244.26 H 292.7 c -0.28,0 -0.5,-0.22 -0.5,-0.5 v -20.71 c 0,-0.28 0.22,-0.5 0.5,-0.5 h 20.71 c 0.28,0 0.5,0.22 0.5,0.5 v 20.71 c 0,0.28 -0.22,0.5 -0.5,0.5 z m -20.21,-1 h 19.71 V 223.55 H 293.2 Z"
     fill="#002346"
     id="path55" />
  <g
     id="g56"
     transform="translate(-176)">
    <rect
       x="351.03"
       y="433.07001"
       width="225.73"
       height="72.370003"
       rx="11.24"
       ry="11.24"
       fill="#23a6f0"
       id="rect55" />
    <path
       d="M 565.52,505.94 H 362.27 c -6.47,0 -11.74,-5.27 -11.74,-11.74 v -49.89 c 0,-6.47 5.27,-11.74 11.74,-11.74 h 203.25 c 6.47,0 11.74,5.27 11.74,11.74 v 49.89 c 0,6.47 -5.27,11.74 -11.74,11.74 z M 362.27,433.57 c -5.92,0 -10.74,4.82 -10.74,10.74 v 49.89 c 0,5.92 4.82,10.74 10.74,10.74 h 203.25 c 5.92,0 10.74,-4.82 10.74,-10.74 v -49.89 c 0,-5.92 -4.82,-10.74 -10.74,-10.74 z"
       fill="#002346"
       id="path56" />
  </g>
  <g
     id="g57"
     transform="translate(-176)">
    <rect
       x="360.97"
       y="447.53"
       width="42.009998"
       height="42.009998"
       rx="6.71"
       ry="6.71"
       fill="#ffffff"
       id="rect56" />
    <path
       d="m 396.27,490.04 h -28.59 c -3.98,0 -7.21,-3.23 -7.21,-7.21 v -28.59 c 0,-3.98 3.23,-7.21 7.21,-7.21 h 28.59 c 3.98,0 7.21,3.23 7.21,7.21 v 28.59 c 0,3.98 -3.23,7.21 -7.21,7.21 z m -28.59,-42.01 c -3.42,0 -6.21,2.79 -6.21,6.21 v 28.59 c 0,3.42 2.79,6.21 6.21,6.21 h 28.59 c 3.42,0 6.21,-2.79 6.21,-6.21 v -28.59 c 0,-3.42 -2.79,-6.21 -6.21,-6.21 z"
       fill="#002346"
       id="path57" />
  </g>
  <rect
     x="191.01999"
     y="459.17999"
     width="29.92"
     height="18.98"
     fill="#002346"
     id="rect57" />
  <path
     d="m 222,441.6 c 4.02,-1.59 8.56,0.37 10.15,4.39 1.59,4.02 -0.37,8.56 -4.39,10.15 -4.02,1.59 -8.56,-0.37 -10.15,-4.39 0,0 0,0 0,0 -1.59,-4.01 0.36,-8.55 4.37,-10.14 0,0 0.01,0 0.02,0 z"
     fill="#002346"
     id="path58" />
  <path
     d="m 223.98,451.69 c 0,0.29 -0.23,0.52 -0.52,0.52 0,0 0,0 -0.01,0 h -3.44 c -0.15,0 -0.29,-0.05 -0.39,-0.16 -0.21,-0.21 -0.21,-0.54 0,-0.75 v 0 c 0,0 2.85,-2.57 2.85,-2.57 0.27,-0.24 0.42,-0.58 0.41,-0.94 0,-0.68 -0.55,-1.23 -1.23,-1.23 0,0 -0.01,0 -0.02,0 -0.31,0 -0.6,0.11 -0.83,0.31 l -0.3,0.27 c -0.22,0.2 -0.55,0.18 -0.75,-0.04 -0.2,-0.22 -0.18,-0.55 0.04,-0.75 v 0 l 0.28,-0.26 c 0.98,-0.81 2.43,-0.67 3.24,0.32 0.75,0.92 0.69,2.26 -0.16,3.09 v 0 l -1.82,1.64 h 2.07 c 0.3,-0.03 0.56,0.18 0.6,0.48 z"
     fill="#ffffff"
     id="path59" />
  <path
     d="m 228.93,448.09 c 0.45,0.44 0.7,1.06 0.69,1.69 0,0.63 -0.25,1.24 -0.69,1.69 -0.93,0.93 -2.44,0.93 -3.37,0 v 0 c -0.21,-0.2 -0.22,-0.54 -0.02,-0.75 0,0 0.01,-0.01 0.02,-0.02 0.2,-0.21 0.53,-0.22 0.73,-0.03 0,0 0.02,0.02 0.03,0.03 0.24,0.24 0.58,0.38 0.92,0.37 0.35,0 0.69,-0.13 0.94,-0.37 0.24,-0.25 0.38,-0.58 0.38,-0.92 0,-0.34 -0.14,-0.68 -0.38,-0.92 -0.25,-0.24 -0.58,-0.38 -0.92,-0.39 -0.15,0.01 -0.3,-0.05 -0.39,-0.17 v 0 c -0.21,-0.21 -0.21,-0.54 0,-0.75 v 0 c 0,0 1,-1 1,-1 h -1.51 c -0.3,0 -0.54,-0.24 -0.54,-0.54 0,-0.3 0.24,-0.54 0.54,-0.54 h 2.85 c 0.3,0 0.54,0.24 0.54,0.54 v 0 c 0.02,0.09 0.02,0.17 0,0.26 -0.02,0.05 -0.06,0.1 -0.1,0.13 l -1.21,1.25 c 0.18,0.12 0.35,0.27 0.49,0.44 z"
     fill="#ffffff"
     id="path60" />
  <g
     id="g61"
     transform="translate(-176)">
    <rect
       x="418.17001"
       y="447.53"
       width="75.139999"
       height="6.0500002"
       fill="#ffffff"
       id="rect60" />
    <path
       d="m 493.81,454.08 h -76.14 v -7.05 h 76.14 z m -75.14,-1 h 74.14 v -5.05 h -74.14 z"
       fill="#002346"
       id="path61" />
  </g>
  <g
     id="g62"
     transform="translate(-176)">
    <rect
       x="418.17001"
       y="460.35999"
       width="138.63"
       height="4.27"
       fill="#ffffff"
       id="rect61" />
    <path
       d="M 557.3,465.13 H 417.67 v -5.27 H 557.3 Z m -138.63,-1 H 556.3 v -3.27 H 418.67 Z"
       fill="#002346"
       id="path62" />
  </g>
  <g
     id="g63"
     transform="translate(-176)">
    <rect
       x="418.17001"
       y="467.94"
       width="138.63"
       height="4.27"
       fill="#ffffff"
       id="rect62" />
    <path
       d="M 557.3,472.71 H 417.67 v -5.27 H 557.3 Z m -138.63,-1 H 556.3 v -3.27 H 418.67 Z"
       fill="#002346"
       id="path63" />
  </g>
  <g
     id="g64"
     transform="translate(-176)">
    <rect
       x="418.17001"
       y="475.5"
       width="138.63"
       height="4.27"
       fill="#ffffff"
       id="rect63" />
    <path
       d="M 557.3,480.27 H 417.67 V 475 H 557.3 Z m -138.63,-1 H 556.3 V 476 H 418.67 Z"
       fill="#002346"
       id="path64" />
  </g>
  <path
     d="m 191.02,459.18 c 5.07,2.74 10,5.72 14.89,8.77 h -0.52 c 2.55,-1.53 5.11,-3.05 7.7,-4.51 2.28,-1.28 5.53,-3.1 7.84,-4.26 -1.21,0.86 -2.46,1.67 -3.69,2.51 -3.63,2.36 -7.64,4.91 -11.34,7.11 -0.16,0.1 -0.36,0.1 -0.52,0 -4.87,-3.09 -9.69,-6.24 -14.36,-9.62 z"
     fill="#ffffff"
     id="path65" />
  <path
     d="m 201.47,465.99 c -2.95,4.48 -6.46,8.57 -10.45,12.16 2.94,-4.49 6.46,-8.57 10.45,-12.16 z"
     fill="#ffffff"
     id="path66" />
  <path
     d="m 210.29,466.09 c 4.05,3.53 7.62,7.56 10.64,12 -4.05,-3.53 -7.62,-7.56 -10.64,-12 z"
     fill="#ffffff"
     id="path67" />
  <path
     d="m 383.98,447.91 c -0.13,0 -0.26,-0.05 -0.36,-0.15 -0.19,-0.2 -0.19,-0.51 0.01,-0.71 l 2.73,-2.63 q 3.08,-2.97 3.43,-2.62 c 0.2,0.2 0.2,0.51 0,0.71 -0.01,0.01 -0.02,0.02 -0.04,0.03 -0.23,0.21 -3.36,3.23 -5.43,5.23 -0.1,0.09 -0.22,0.14 -0.35,0.14 z"
     fill="#002346"
     id="path68" />
  <path
     d="m 389.54,448.11 c -0.13,0 -0.26,-0.05 -0.35,-0.15 -0.01,-0.01 -0.02,-0.02 -0.03,-0.04 -0.21,-0.23 -3.23,-3.36 -5.23,-5.43 -0.19,-0.2 -0.19,-0.52 0.01,-0.71 0.2,-0.19 0.52,-0.19 0.71,0.01 l 2.63,2.73 q 2.97,3.08 2.62,3.43 c -0.1,0.1 -0.23,0.15 -0.35,0.15 z"
     fill="#002346"
     id="path69" />
  <polygon
     points="476.58,198.55 481.3,202.32 492.09,191.84 494.68,194.89 481.09,208.29 473.75,201.59 "
     fill="#002346"
     id="polygon69"
     transform="translate(-176)" />
  <polygon
     points="476.58,230.7 481.3,234.47 492.09,223.99 494.68,227.04 481.09,240.44 473.75,233.74 "
     fill="#002346"
     id="polygon70"
     transform="translate(-176)" />
</svg>
