<?xml version="1.0" encoding="UTF-8" standalone="no"?>
<svg
   id="a"
   width="865.76"
   height="682.89"
   viewBox="0 0 865.76 682.89"
   version="1.1"
   sodipodi:docname="Programming.svg"
   inkscape:version="1.3.2 (091e20e, 2023-11-25, custom)"
   xmlns:inkscape="http://www.inkscape.org/namespaces/inkscape"
   xmlns:sodipodi="http://sodipodi.sourceforge.net/DTD/sodipodi-0.dtd"
   xmlns="http://www.w3.org/2000/svg"
   xmlns:svg="http://www.w3.org/2000/svg">
  <defs
     id="defs179" />
  <sodipodi:namedview
     id="namedview179"
     pagecolor="#505050"
     bordercolor="#eeeeee"
     borderopacity="1"
     inkscape:showpageshadow="0"
     inkscape:pageopacity="0"
     inkscape:pagecheckerboard="0"
     inkscape:deskcolor="#505050"
     inkscape:zoom="1.1042321"
     inkscape:cx="432.88"
     inkscape:cy="341.86653"
     inkscape:window-width="1920"
     inkscape:window-height="1009"
     inkscape:window-x="-8"
     inkscape:window-y="-8"
     inkscape:window-maximized="1"
     inkscape:current-layer="a" />
  <g
     id="g6"
     style="stroke:#e5e6e7;stroke-opacity:1">
    <line
       x1="412.49"
       y1="159.61"
       x2="417.99"
       y2="159.61"
       fill="none"
       stroke="#002346"
       stroke-linecap="round"
       stroke-linejoin="round"
       id="line1"
       style="stroke:#e5e6e7;stroke-opacity:1" />
    <line
       x1="429.88"
       y1="159.61"
       x2="519"
       y2="159.61"
       fill="none"
       stroke="#002346"
       stroke-dasharray="0 0 11.88 11.88"
       stroke-linecap="round"
       stroke-linejoin="round"
       id="line2"
       style="stroke:#e5e6e7;stroke-opacity:1" />
    <polyline
       points="524.94 159.61 530.44 159.61 533.52 155.05"
       fill="none"
       stroke="#002346"
       stroke-linecap="round"
       stroke-linejoin="round"
       id="polyline2"
       style="stroke:#e5e6e7;stroke-opacity:1" />
    <line
       x1="537.05"
       y1="149.82"
       x2="542.35"
       y2="141.97"
       fill="none"
       stroke="#002346"
       stroke-dasharray="0 0 6.31 6.31"
       stroke-linecap="round"
       stroke-linejoin="round"
       id="line3"
       style="stroke:#e5e6e7;stroke-opacity:1" />
    <polyline
       points="544.11 139.36 547.19 134.8 552.69 134.8"
       fill="none"
       stroke="#002346"
       stroke-linecap="round"
       stroke-linejoin="round"
       id="polyline3"
       style="stroke:#e5e6e7;stroke-opacity:1" />
    <line
       x1="563.37"
       y1="134.8"
       x2="729.01"
       y2="134.8"
       fill="none"
       stroke="#002346"
       stroke-dasharray="0 0 10.69 10.69"
       stroke-linecap="round"
       stroke-linejoin="round"
       id="line4"
       style="stroke:#e5e6e7;stroke-opacity:1" />
    <polyline
       points="734.36 134.8 739.86 134.8 739.86 140.3"
       fill="none"
       stroke="#002346"
       stroke-linecap="round"
       stroke-linejoin="round"
       id="polyline4"
       style="stroke:#e5e6e7;stroke-opacity:1" />
    <line
       x1="739.86"
       y1="150.79"
       x2="739.86"
       y2="250.48"
       fill="none"
       stroke="#002346"
       stroke-dasharray="0 0 10.49 10.49"
       stroke-linecap="round"
       stroke-linejoin="round"
       id="line5"
       style="stroke:#e5e6e7;stroke-opacity:1" />
    <line
       x1="739.86"
       y1="255.72"
       x2="739.86"
       y2="261.22"
       fill="none"
       stroke="#002346"
       stroke-linecap="round"
       stroke-linejoin="round"
       id="line6"
       style="stroke:#e5e6e7;stroke-opacity:1" />
  </g>
  <path
     d="M212.91,553.25s-1.22,5.01,1.82,7.55c.91,.76,2.1,1.11,3.28,1.11h307.31c1.91,0,3.71-1.11,4.38-2.89,.5-1.32,.61-3.17-.3-5.73l-316.49-.04Z"
     fill="#e5e6e7"
     stroke="#002346"
     stroke-miterlimit="10"
     id="path6" />
  <rect
     x="344.67"
     y="422.75"
     width="50.46"
     height="52.09"
     fill="#fff"
     stroke="#002346"
     stroke-linecap="round"
     stroke-linejoin="round"
     id="rect6" />
  <rect
     x="210.38"
     y="215.21"
     width="324.73"
     height="210.79"
     rx="6.73"
     ry="6.73"
     fill="#ffffff"
     stroke="#002346"
     stroke-miterlimit="10"
     id="rect7" />
  <rect
     x="216.9"
     y="222.54"
     width="310.9"
     height="188.82"
     fill="#fff"
     stroke="#002346"
     stroke-linecap="round"
     stroke-linejoin="round"
     id="rect8" />
  <rect
     x="220.15"
     y="226.2"
     width="304.39"
     height="181.49"
     fill="#002346"
     stroke="#002346"
     stroke-miterlimit="10"
     id="rect9" />
  <rect
     x="244.57"
     y="469.95"
     width="251.48"
     height="14.65"
     rx="7.32"
     ry="7.32"
     fill="#e5e6e7"
     stroke="#002346"
     stroke-miterlimit="10"
     id="rect10" />
  <path
     d="M526.2,557.85H216.1c-2.37,0-4.02-2.37-3.19-4.59l20.25-54.23c.5-1.33,1.77-2.21,3.19-2.21H506.68c1.44,0,2.72,.9,3.2,2.25l19.52,54.23c.8,2.22-.85,4.56-3.2,4.56Z"
     fill="#fff"
     stroke="#002346"
     stroke-linecap="round"
     stroke-linejoin="round"
     id="path10" />
  <path
     d="M517.16,552.96H224.51c-1.73,0-2.94-1.71-2.36-3.34l16.95-47.89c.35-1,1.3-1.67,2.36-1.67H500.59c1.68,0,3.17,1.04,3.75,2.62l16.58,44.9c.96,2.61-.97,5.39-3.75,5.39Z"
     fill="#e5e6e7"
     stroke="#002346"
     stroke-miterlimit="10"
     id="path11" />
  <path
     d="M585.1,532.47c-.2,5.79-3.01,9.24-5.92,11.25-2.66,1.85-5.88,2.73-9.12,2.73h-21.14c-1.37,0-2.73-.15-4.05-.5-7.4-1.99-9.72-7.55-10.25-12.4-.17-1.51-.16-2.95-.09-4.18,.16-2.41,.59-4.07,.59-4.07,4.99-19.24,19.96-21.01,23.6-21.14,.52-.03,.81-.02,.81-.02,.28,0,.55-.02,.81-.02,18.86-.2,23.6,20.36,23.6,20.36,.37,1.27,.64,2.47,.83,3.6,.27,1.6,.37,3.06,.33,4.39Z"
     fill="#ffffff"
     stroke="#002346"
     stroke-miterlimit="10"
     id="path12" />
  <path
     d="M585.1,532.47c-.2,5.79-3.01,9.24-5.92,11.25-2.66,1.85-5.88,2.73-9.12,2.73h-21.14c-1.37,0-2.73-.15-4.05-.5-7.4-1.99-9.72-7.55-10.25-12.4-.17-1.51-.16-2.95-.09-4.18,1.7,3.74,6.05,9.5,16.87,10.58h14.53c2.91,0,5.8-.49,8.5-1.57,3.85-1.55,8.5-4.55,10.36-10.3,.27,1.6,.37,3.06,.33,4.39Z"
     fill="#fff"
     stroke="#002346"
     stroke-linecap="round"
     stroke-linejoin="round"
     id="path13" />
  <path
     d="M585.07,532.55s.03-.01,.03,0c-.22,5.74-3.02,9.16-5.92,11.16-2.66,1.85-5.88,2.73-9.12,2.73h-21.14c-1.37,0-2.73-.15-4.05-.5-7.17-1.93-9.57-7.22-10.19-11.96-.01-.1,.12-.14,.17-.06,2.45,4.18,8.86,11.24,23.89,10.08v-39.86c.52-.03,.81-.02,.81-.02,.28,0,.55-.02,.81-.02v39.79l10.58-.71s9.74-.65,14.14-10.65Z"
     fill="#002346"
     stroke="#002346"
     stroke-miterlimit="10"
     id="path14" />
  <rect
     x="703.98"
     y="283.05"
     width="115.58"
     height="26.93"
     fill="#ffffff"
     stroke="#002346"
     stroke-miterlimit="10"
     id="rect14" />
  <polygon
     points="179.05 182.75 191.84 182.45 191.84 143.3 44.18 143.3 44.18 336.89 191.84 336.89 191.84 300.82 179.05 300.51 179.05 182.75"
     fill="#00dab1ff"
     stroke="#002346"
     stroke-miterlimit="10"
     id="polygon14" />
  <rect
     x="50.44"
     y="256.18"
     width="86.01"
     height="4.93"
     fill="#fff"
     stroke="#002346"
     stroke-linecap="round"
     stroke-linejoin="round"
     id="rect15" />
  <rect
     x="50.44"
     y="267.28"
     width="96.61"
     height="4.93"
     fill="#fff"
     stroke="#002346"
     stroke-linecap="round"
     stroke-linejoin="round"
     id="rect16" />
  <rect
     x="50.44"
     y="278.99"
     width="113.44"
     height="4.93"
     fill="#fff"
     stroke="#002346"
     stroke-linecap="round"
     stroke-linejoin="round"
     id="rect17" />
  <rect
     x="50.44"
     y="290.09"
     width="117.33"
     height="4.93"
     fill="#fff"
     stroke="#002346"
     stroke-linecap="round"
     stroke-linejoin="round"
     id="rect18" />
  <rect
     x="50.96"
     y="243.79"
     width="123.92"
     height="4.93"
     fill="#ffffff"
     stroke="#002346"
     stroke-miterlimit="10"
     id="rect19" />
  <rect
     x="50.96"
     y="153.16"
     width="123.92"
     height="4.93"
     fill="#ffffff"
     stroke="#002346"
     stroke-miterlimit="10"
     id="rect20" />
  <rect
     x="50.96"
     y="164.26"
     width="51.23"
     height="4.93"
     fill="#ffffff"
     stroke="#002346"
     stroke-miterlimit="10"
     id="rect21" />
  <rect
     x="50.96"
     y="178.44"
     width="86.01"
     height="4.93"
     fill="#ffffff"
     stroke="#002346"
     stroke-miterlimit="10"
     id="rect22" />
  <rect
     x="144.61"
     y="178.44"
     width="23.67"
     height="4.93"
     fill="#ffffff"
     stroke="#002346"
     stroke-miterlimit="10"
     id="rect23" />
  <rect
     x="50.96"
     y="190.15"
     width="96.61"
     height="4.93"
     fill="#ffffff"
     stroke="#002346"
     stroke-miterlimit="10"
     id="rect24" />
  <rect
     x="50.96"
     y="200.63"
     width="113.44"
     height="4.93"
     fill="#ffffff"
     stroke="#002346"
     stroke-miterlimit="10"
     id="rect25" />
  <rect
     x="50.96"
     y="211.11"
     width="117.33"
     height="4.93"
     fill="#ffffff"
     stroke="#002346"
     stroke-miterlimit="10"
     id="rect26" />
  <rect
     x="50.96"
     y="221.6"
     width="119.3"
     height="4.93"
     fill="#ffffff"
     stroke="#002346"
     stroke-miterlimit="10"
     id="rect27" />
  <rect
     x="50.96"
     y="232.69"
     width="58.2"
     height="4.93"
     fill="#ffffff"
     stroke="#002346"
     stroke-miterlimit="10"
     id="rect28" />
  <rect
     x="121.62"
     y="232.14"
     width="48.15"
     height="4.93"
     fill="#ffffff"
     stroke="#002346"
     stroke-miterlimit="10"
     id="rect29" />
  <path
     d="M165.8,485.64H67.43c-4.5,0-8.14-3.64-8.14-8.14v-68.35c0-4.5,3.64-8.14,8.14-8.14h98.37c4.5,0,8.14,3.64,8.14,8.14v68.35c0,4.5-3.64,8.14-8.14,8.14Z"
     fill="#e5e6e7"
     stroke="#002346"
     stroke-miterlimit="10"
     id="path29" />
  <ellipse
     cx="117.7"
     cy="422.35"
     rx="10.67"
     ry="10.49"
     fill="#ffffff"
     stroke="#002346"
     stroke-miterlimit="10"
     id="ellipse29" />
  <rect
     x="80.99"
     y="440.07"
     width="74.14"
     height="6.87"
     fill="#fff"
     stroke="#002346"
     stroke-linecap="round"
     stroke-linejoin="round"
     id="rect30" />
  <rect
     x="80.63"
     y="454.17"
     width="74.14"
     height="6.87"
     fill="#fff"
     stroke="#002346"
     stroke-linecap="round"
     stroke-linejoin="round"
     id="rect31" />
  <rect
     x="94.27"
     y="466.11"
     width="46.29"
     height="6.87"
     fill="#fff"
     stroke="#002346"
     stroke-linecap="round"
     stroke-linejoin="round"
     id="rect32" />
  <path
     d="M401.38,168.41h-77.71c-2.59,0-4.7-2.1-4.7-4.7v-8.79c0-2.59,2.1-4.7,4.7-4.7h77.71c2.59,0,4.7,2.1,4.7,4.7v8.79c0,2.59-2.1,4.7-4.7,4.7Z"
     fill="#00dab1ff"
     stroke="#002346"
     stroke-miterlimit="10"
     id="path32" />
  <line
     x1="326.29"
     y1="159.32"
     x2="398.76"
     y2="159.32"
     fill="none"
     stroke="#002346"
     stroke-linecap="round"
     stroke-linejoin="round"
     id="line32" />
  <circle
     cx="635.75"
     cy="134.52"
     r="8.6"
     fill="#ffffff"
     stroke="#002346"
     stroke-miterlimit="10"
     id="circle32" />
  <path
     d="M233.58,232.62v24.11c0,.44,.36,.8,.8,.8h11.13"
     fill="none"
     stroke="#e5e6e7"
     stroke-linecap="round"
     stroke-linejoin="round"
     id="path33" />
  <path
     d="M241.58,284.62v21.11c0,.44,.36,.8,.8,.8h11.13"
     fill="none"
     stroke="#e5e6e7"
     stroke-linecap="round"
     stroke-linejoin="round"
     id="path34" />
  <path
     d="M241.58,313.48v12.11c0,.44,.36,.8,.8,.8h11.13"
     fill="none"
     stroke="#e5e6e7"
     stroke-linecap="round"
     stroke-linejoin="round"
     id="path35" />
  <line
     x1="248.95"
     y1="257.53"
     x2="260.35"
     y2="257.53"
     fill="none"
     stroke="#e5e6e7"
     stroke-linecap="round"
     stroke-linejoin="round"
     id="line35" />
  <line
     x1="248.95"
     y1="264.53"
     x2="265.35"
     y2="264.53"
     fill="none"
     stroke="#fff"
     stroke-linecap="round"
     stroke-linejoin="round"
     id="line36" />
  <line
     x1="248.95"
     y1="271.53"
     x2="290.35"
     y2="271.53"
     fill="none"
     stroke="#fff"
     stroke-linecap="round"
     stroke-linejoin="round"
     id="line37" />
  <line
     x1="311.95"
     y1="264.53"
     x2="328.35"
     y2="264.53"
     fill="none"
     stroke="#f0f1f1"
     stroke-linecap="round"
     stroke-linejoin="round"
     id="line38" />
  <line
     x1="268.95"
     y1="264.53"
     x2="308.35"
     y2="264.53"
     fill="none"
     stroke="#fff"
     stroke-linecap="round"
     stroke-linejoin="round"
     id="line39" />
  <line
     x1="248.95"
     y1="277.53"
     x2="273.35"
     y2="277.53"
     fill="none"
     stroke="#fff"
     stroke-linecap="round"
     stroke-linejoin="round"
     id="line40" />
  <line
     x1="277.95"
     y1="277.53"
     x2="302.35"
     y2="277.53"
     fill="none"
     stroke="#fff"
     stroke-linecap="round"
     stroke-linejoin="round"
     id="line41" />
  <line
     x1="248.95"
     y1="238"
     x2="278.75"
     y2="238"
     fill="none"
     stroke="#e5e6e7"
     stroke-linecap="round"
     stroke-linejoin="round"
     id="line42" />
  <line
     x1="248.95"
     y1="245"
     x2="278.75"
     y2="245"
     fill="none"
     stroke="#fff"
     stroke-linecap="round"
     stroke-linejoin="round"
     id="line43" />
  <line
     x1="248.95"
     y1="251"
     x2="314.75"
     y2="251"
     fill="none"
     stroke="#fff"
     stroke-linecap="round"
     stroke-linejoin="round"
     id="line44" />
  <line
     x1="294.95"
     y1="245"
     x2="324.75"
     y2="245"
     fill="none"
     stroke="#e5e6e7"
     stroke-linecap="round"
     stroke-linejoin="round"
     id="line45" />
  <line
     x1="281.95"
     y1="245"
     x2="291.75"
     y2="245"
     fill="none"
     stroke="#fff"
     stroke-linecap="round"
     stroke-linejoin="round"
     id="line46" />
  <line
     x1="283.32"
     y1="238"
     x2="301.86"
     y2="238"
     fill="none"
     stroke="#fff"
     stroke-linecap="round"
     stroke-linejoin="round"
     id="line47" />
  <line
     x1="256.27"
     y1="284.97"
     x2="325.92"
     y2="284.97"
     fill="none"
     stroke="#fff"
     stroke-linecap="round"
     stroke-linejoin="round"
     id="line48" />
  <line
     x1="320.27"
     y1="291.97"
     x2="389.92"
     y2="291.97"
     fill="none"
     stroke="#fff"
     stroke-linecap="round"
     stroke-linejoin="round"
     id="line49" />
  <line
     x1="256.27"
     y1="291.97"
     x2="315.92"
     y2="291.97"
     fill="none"
     stroke="#fff"
     stroke-linecap="round"
     stroke-linejoin="round"
     id="line50" />
  <line
     x1="256.27"
     y1="298.97"
     x2="321.92"
     y2="298.97"
     fill="none"
     stroke="#fff"
     stroke-linecap="round"
     stroke-linejoin="round"
     id="line51" />
  <line
     x1="256.27"
     y1="306.53"
     x2="293.92"
     y2="306.53"
     fill="none"
     stroke="#fff"
     stroke-linecap="round"
     stroke-linejoin="round"
     id="line52" />
  <line
     x1="256.27"
     y1="313.53"
     x2="279.92"
     y2="313.53"
     fill="none"
     stroke="#fff"
     stroke-linecap="round"
     stroke-linejoin="round"
     id="line53" />
  <line
     x1="256.27"
     y1="320.53"
     x2="267.92"
     y2="320.53"
     fill="none"
     stroke="#fff"
     stroke-linecap="round"
     stroke-linejoin="round"
     id="line54" />
  <line
     x1="274.27"
     y1="320.53"
     x2="330.92"
     y2="320.53"
     fill="none"
     stroke="#fff"
     stroke-linecap="round"
     stroke-linejoin="round"
     id="line55" />
  <line
     x1="256.27"
     y1="326.53"
     x2="329.36"
     y2="326.53"
     fill="none"
     stroke="#fff"
     stroke-linecap="round"
     stroke-linejoin="round"
     id="line56" />
  <line
     x1="312.27"
     y1="341.53"
     x2="385.36"
     y2="341.53"
     fill="none"
     stroke="#fff"
     stroke-linecap="round"
     stroke-linejoin="round"
     id="line57" />
  <line
     x1="285.27"
     y1="313.53"
     x2="329.92"
     y2="313.53"
     fill="none"
     stroke="#fff"
     stroke-linecap="round"
     stroke-linejoin="round"
     id="line58" />
  <line
     x1="300.27"
     y1="306.53"
     x2="337.92"
     y2="306.53"
     fill="none"
     stroke="#fff"
     stroke-linecap="round"
     stroke-linejoin="round"
     id="line59" />
  <polyline
     points="256.27 341.36 256.27 388.56 268.1 388.56"
     fill="none"
     stroke="#e5e6e7"
     stroke-linecap="round"
     stroke-linejoin="round"
     id="polyline59" />
  <line
     x1="274.99"
     y1="341.36"
     x2="306.92"
     y2="341.36"
     fill="none"
     stroke="#fff"
     stroke-linecap="round"
     stroke-linejoin="round"
     id="line60" />
  <line
     x1="274.99"
     y1="365.36"
     x2="303.36"
     y2="365.36"
     fill="none"
     stroke="#fff"
     stroke-linecap="round"
     stroke-linejoin="round"
     id="line61" />
  <line
     x1="274.99"
     y1="372.36"
     x2="290.36"
     y2="372.36"
     fill="none"
     stroke="#fff"
     stroke-linecap="round"
     stroke-linejoin="round"
     id="line62" />
  <line
     x1="294.99"
     y1="372.36"
     x2="332.36"
     y2="372.36"
     fill="none"
     stroke="#fff"
     stroke-linecap="round"
     stroke-linejoin="round"
     id="line63" />
  <line
     x1="307.99"
     y1="365.36"
     x2="336.36"
     y2="365.36"
     fill="none"
     stroke="#fff"
     stroke-linecap="round"
     stroke-linejoin="round"
     id="line64" />
  <line
     x1="274.99"
     y1="349.36"
     x2="296.92"
     y2="349.36"
     fill="none"
     stroke="#fff"
     stroke-linecap="round"
     stroke-linejoin="round"
     id="line65" />
  <line
     x1="274.99"
     y1="380.36"
     x2="331.92"
     y2="380.36"
     fill="none"
     stroke="#fff"
     stroke-linecap="round"
     stroke-linejoin="round"
     id="line66" />
  <line
     x1="274.99"
     y1="388.56"
     x2="283.92"
     y2="388.56"
     fill="none"
     stroke="#fff"
     stroke-linecap="round"
     stroke-linejoin="round"
     id="line67" />
  <line
     x1="287.99"
     y1="388.56"
     x2="332.92"
     y2="388.56"
     fill="none"
     stroke="#fff"
     stroke-linecap="round"
     stroke-linejoin="round"
     id="line68" />
  <line
     x1="274.99"
     y1="357.36"
     x2="329.92"
     y2="357.36"
     fill="none"
     stroke="#fff"
     stroke-linecap="round"
     stroke-linejoin="round"
     id="line69" />
  <line
     x1="302.99"
     y1="349.36"
     x2="331.92"
     y2="349.36"
     fill="none"
     stroke="#fff"
     stroke-linecap="round"
     stroke-linejoin="round"
     id="line70" />
  <g
     id="g148">
    <rect
       x="349.26"
       y="182.38"
       width="347.18"
       height="202.52"
       fill="#00dab1ff"
       stroke="#002346"
       stroke-miterlimit="10"
       id="rect70" />
    <rect
       x="349.26"
       y="182.47"
       width="347.18"
       height="19"
       fill="#ffffff"
       stroke="#002346"
       stroke-miterlimit="10"
       id="rect71" />
    <circle
       cx="363.55"
       cy="191.97"
       r="4.82"
       fill="#fff"
       stroke="#002346"
       stroke-linecap="round"
       stroke-linejoin="round"
       id="circle71" />
    <circle
       cx="379.29"
       cy="191.97"
       r="4.82"
       fill="#fff"
       stroke="#002346"
       stroke-linecap="round"
       stroke-linejoin="round"
       id="circle72" />
    <circle
       cx="395.02"
       cy="191.97"
       r="4.82"
       fill="#fff"
       stroke="#002346"
       stroke-linecap="round"
       stroke-linejoin="round"
       id="circle73" />
    <path
       d="M685.53,288.21h-93.39V150.15h93.39v138.06Z"
       fill="#fff"
       stroke="#002346"
       stroke-linecap="round"
       stroke-linejoin="round"
       id="path73" />
    <g
       id="g85">
      <rect
         x="601.52"
         y="164.61"
         width="12.69"
         height="11.17"
         fill="#e5e6e7"
         stroke="#002346"
         stroke-linecap="round"
         stroke-linejoin="round"
         id="rect73" />
      <rect
         x="601.52"
         y="180.35"
         width="12.69"
         height="11.17"
         fill="#e5e6e7"
         stroke="#002346"
         stroke-linecap="round"
         stroke-linejoin="round"
         id="rect74" />
      <rect
         x="601.52"
         y="197.6"
         width="12.69"
         height="11.17"
         fill="#e5e6e7"
         stroke="#002346"
         stroke-linecap="round"
         stroke-linejoin="round"
         id="rect75" />
      <rect
         x="601.52"
         y="213.85"
         width="12.69"
         height="11.17"
         fill="#e5e6e7"
         stroke="#002346"
         stroke-linecap="round"
         stroke-linejoin="round"
         id="rect76" />
      <rect
         x="601.52"
         y="229.07"
         width="12.69"
         height="11.17"
         fill="#e5e6e7"
         stroke="#002346"
         stroke-linecap="round"
         stroke-linejoin="round"
         id="rect77" />
      <rect
         x="601.52"
         y="245.32"
         width="12.69"
         height="11.17"
         fill="#e5e6e7"
         stroke="#002346"
         stroke-linecap="round"
         stroke-linejoin="round"
         id="rect78" />
      <rect
         x="601.52"
         y="262.57"
         width="12.69"
         height="11.17"
         fill="#e5e6e7"
         stroke="#002346"
         stroke-linecap="round"
         stroke-linejoin="round"
         id="rect79" />
      <line
         x1="618.17"
         y1="170.2"
         x2="676.13"
         y2="170.2"
         fill="none"
         stroke="#002346"
         stroke-linecap="round"
         stroke-linejoin="round"
         id="line79" />
      <line
         x1="618.17"
         y1="185.93"
         x2="674.13"
         y2="185.93"
         fill="none"
         stroke="#002346"
         stroke-linecap="round"
         stroke-linejoin="round"
         id="line80" />
      <line
         x1="618.17"
         y1="203.19"
         x2="675.13"
         y2="203.19"
         fill="none"
         stroke="#002346"
         stroke-linecap="round"
         stroke-linejoin="round"
         id="line81" />
      <line
         x1="618.17"
         y1="219.43"
         x2="675.13"
         y2="219.43"
         fill="none"
         stroke="#002346"
         stroke-linecap="round"
         stroke-linejoin="round"
         id="line82" />
      <line
         x1="618.17"
         y1="234.66"
         x2="675.13"
         y2="234.66"
         fill="none"
         stroke="#002346"
         stroke-linecap="round"
         stroke-linejoin="round"
         id="line83" />
      <line
         x1="618.17"
         y1="250.9"
         x2="675.13"
         y2="250.9"
         fill="none"
         stroke="#002346"
         stroke-linecap="round"
         stroke-linejoin="round"
         id="line84" />
      <line
         x1="618.17"
         y1="268.16"
         x2="675.13"
         y2="268.16"
         fill="none"
         stroke="#002346"
         stroke-linecap="round"
         stroke-linejoin="round"
         id="line85" />
    </g>
    <g
       id="g100">
      <circle
         cx="452.3"
         cy="218.42"
         r="3.55"
         fill="#ffffff"
         stroke="#002346"
         stroke-miterlimit="10"
         id="circle85" />
      <circle
         cx="451.79"
         cy="373.22"
         r="3.55"
         fill="#ffffff"
         stroke="#002346"
         stroke-miterlimit="10"
         id="circle86" />
      <circle
         cx="452.3"
         cy="362.06"
         r="3.55"
         fill="#ffffff"
         stroke="#002346"
         stroke-miterlimit="10"
         id="circle87" />
      <circle
         cx="452.3"
         cy="351.4"
         r="3.55"
         fill="#ffffff"
         stroke="#002346"
         stroke-miterlimit="10"
         id="circle88" />
      <circle
         cx="452.3"
         cy="341.25"
         r="3.55"
         fill="#ffffff"
         stroke="#002346"
         stroke-miterlimit="10"
         id="circle89" />
      <circle
         cx="452.3"
         cy="331.1"
         r="3.55"
         fill="#ffffff"
         stroke="#002346"
         stroke-miterlimit="10"
         id="circle90" />
      <circle
         cx="452.3"
         cy="320.44"
         r="3.55"
         fill="#ffffff"
         stroke="#002346"
         stroke-miterlimit="10"
         id="circle91" />
      <circle
         cx="452.3"
         cy="309.78"
         r="3.55"
         fill="#ffffff"
         stroke="#002346"
         stroke-miterlimit="10"
         id="circle92" />
      <circle
         cx="452.3"
         cy="298.61"
         r="3.55"
         fill="#ffffff"
         stroke="#002346"
         stroke-miterlimit="10"
         id="circle93" />
      <circle
         cx="452.3"
         cy="287.95"
         r="3.55"
         fill="#ffffff"
         stroke="#002346"
         stroke-miterlimit="10"
         id="circle94" />
      <circle
         cx="452.3"
         cy="278.31"
         r="3.55"
         fill="#ffffff"
         stroke="#002346"
         stroke-miterlimit="10"
         id="circle95" />
      <circle
         cx="452.3"
         cy="268.66"
         r="3.55"
         fill="#ffffff"
         stroke="#002346"
         stroke-miterlimit="10"
         id="circle96" />
      <circle
         cx="452.3"
         cy="259.53"
         r="3.55"
         fill="#ffffff"
         stroke="#002346"
         stroke-miterlimit="10"
         id="circle97" />
      <circle
         cx="452.3"
         cy="249.88"
         r="3.55"
         fill="#ffffff"
         stroke="#002346"
         stroke-miterlimit="10"
         id="circle98" />
      <circle
         cx="452.3"
         cy="239.23"
         r="3.55"
         fill="#ffffff"
         stroke="#002346"
         stroke-miterlimit="10"
         id="circle99" />
      <circle
         cx="452.3"
         cy="229.07"
         r="3.55"
         fill="#ffffff"
         stroke="#002346"
         stroke-miterlimit="10"
         id="circle100" />
    </g>
    <rect
       x="326.36"
       y="218.97"
       width="90"
       height="177"
       fill="#fff"
       stroke="#002346"
       stroke-linecap="round"
       stroke-linejoin="round"
       id="rect100" />
    <g
       id="g136">
      <circle
         cx="335.5"
         cy="230.12"
         r="3.55"
         fill="#00dab1ff"
         stroke="#002346"
         stroke-miterlimit="10"
         id="circle101" />
      <circle
         cx="334.99"
         cy="384.92"
         r="3.55"
         fill="#00dab1ff"
         stroke="#002346"
         stroke-miterlimit="10"
         id="circle102" />
      <circle
         cx="335.5"
         cy="373.76"
         r="3.55"
         fill="#00dab1ff"
         stroke="#002346"
         stroke-miterlimit="10"
         id="circle103" />
      <circle
         cx="335.5"
         cy="363.1"
         r="3.55"
         fill="#00dab1ff"
         stroke="#002346"
         stroke-miterlimit="10"
         id="circle104" />
      <circle
         cx="335.5"
         cy="352.95"
         r="3.55"
         fill="#00dab1ff"
         stroke="#002346"
         stroke-miterlimit="10"
         id="circle105" />
      <circle
         cx="335.5"
         cy="342.8"
         r="3.55"
         fill="#00dab1ff"
         stroke="#002346"
         stroke-miterlimit="10"
         id="circle106" />
      <circle
         cx="335.5"
         cy="332.14"
         r="3.55"
         fill="#00dab1ff"
         stroke="#002346"
         stroke-miterlimit="10"
         id="circle107" />
      <circle
         cx="335.5"
         cy="321.48"
         r="3.55"
         fill="#00dab1ff"
         stroke="#002346"
         stroke-miterlimit="10"
         id="circle108" />
      <circle
         cx="335.5"
         cy="310.31"
         r="3.55"
         fill="#00dab1ff"
         stroke="#002346"
         stroke-miterlimit="10"
         id="circle109" />
      <circle
         cx="335.5"
         cy="299.65"
         r="3.55"
         fill="#00dab1ff"
         stroke="#002346"
         stroke-miterlimit="10"
         id="circle110" />
      <circle
         cx="335.5"
         cy="290.01"
         r="3.55"
         fill="#00dab1ff"
         stroke="#002346"
         stroke-miterlimit="10"
         id="circle111" />
      <circle
         cx="335.5"
         cy="280.36"
         r="3.55"
         fill="#00dab1ff"
         stroke="#002346"
         stroke-miterlimit="10"
         id="circle112" />
      <circle
         cx="335.5"
         cy="271.23"
         r="3.55"
         fill="#00dab1ff"
         stroke="#002346"
         stroke-miterlimit="10"
         id="circle113" />
      <circle
         cx="335.5"
         cy="261.58"
         r="3.55"
         fill="#00dab1ff"
         stroke="#002346"
         stroke-miterlimit="10"
         id="circle114" />
      <circle
         cx="335.5"
         cy="250.93"
         r="3.55"
         fill="#00dab1ff"
         stroke="#002346"
         stroke-miterlimit="10"
         id="circle115" />
      <circle
         cx="335.5"
         cy="240.77"
         r="3.55"
         fill="#00dab1ff"
         stroke="#002346"
         stroke-miterlimit="10"
         id="circle116" />
      <line
         x1="346.72"
         y1="227.3"
         x2="407.62"
         y2="227.3"
         fill="none"
         stroke="#002346"
         stroke-linecap="round"
         stroke-linejoin="round"
         id="line116" />
      <line
         x1="346.72"
         y1="243.3"
         x2="407.62"
         y2="243.3"
         fill="none"
         stroke="#002346"
         stroke-linecap="round"
         stroke-linejoin="round"
         id="line117" />
      <line
         x1="346.72"
         y1="235.3"
         x2="379.62"
         y2="235.3"
         fill="none"
         stroke="#002346"
         stroke-linecap="round"
         stroke-linejoin="round"
         id="line118" />
      <line
         x1="346.72"
         y1="250.3"
         x2="372.62"
         y2="250.3"
         fill="none"
         stroke="#002346"
         stroke-linecap="round"
         stroke-linejoin="round"
         id="line119" />
      <line
         x1="346.72"
         y1="259.3"
         x2="392.62"
         y2="259.3"
         fill="none"
         stroke="#002346"
         stroke-linecap="round"
         stroke-linejoin="round"
         id="line120" />
      <line
         x1="346.72"
         y1="265.97"
         x2="383.62"
         y2="265.97"
         fill="none"
         stroke="#002346"
         stroke-linecap="round"
         stroke-linejoin="round"
         id="line121" />
      <line
         x1="346.72"
         y1="272.97"
         x2="372.62"
         y2="272.97"
         fill="none"
         stroke="#002346"
         stroke-linecap="round"
         stroke-linejoin="round"
         id="line122" />
      <line
         x1="346.72"
         y1="280.97"
         x2="391.62"
         y2="280.97"
         fill="none"
         stroke="#002346"
         stroke-linecap="round"
         stroke-linejoin="round"
         id="line123" />
      <line
         x1="346.72"
         y1="287.97"
         x2="382.62"
         y2="287.97"
         fill="none"
         stroke="#002346"
         stroke-linecap="round"
         stroke-linejoin="round"
         id="line124" />
      <line
         x1="346.72"
         y1="294.97"
         x2="394.62"
         y2="294.97"
         fill="none"
         stroke="#002346"
         stroke-linecap="round"
         stroke-linejoin="round"
         id="line125" />
      <line
         x1="346.72"
         y1="302.97"
         x2="405.62"
         y2="302.97"
         fill="none"
         stroke="#002346"
         stroke-linecap="round"
         stroke-linejoin="round"
         id="line126" />
      <line
         x1="346.72"
         y1="310.97"
         x2="383.62"
         y2="310.97"
         fill="none"
         stroke="#002346"
         stroke-linecap="round"
         stroke-linejoin="round"
         id="line127" />
      <line
         x1="346.72"
         y1="318.97"
         x2="388.62"
         y2="318.97"
         fill="none"
         stroke="#002346"
         stroke-linecap="round"
         stroke-linejoin="round"
         id="line128" />
      <line
         x1="346.72"
         y1="325.97"
         x2="382.62"
         y2="325.97"
         fill="none"
         stroke="#002346"
         stroke-linecap="round"
         stroke-linejoin="round"
         id="line129" />
      <line
         x1="346.72"
         y1="333.97"
         x2="395.62"
         y2="333.97"
         fill="none"
         stroke="#002346"
         stroke-linecap="round"
         stroke-linejoin="round"
         id="line130" />
      <line
         x1="346.72"
         y1="342.97"
         x2="406.62"
         y2="342.97"
         fill="none"
         stroke="#002346"
         stroke-linecap="round"
         stroke-linejoin="round"
         id="line131" />
      <line
         x1="346.72"
         y1="353.97"
         x2="371.62"
         y2="353.97"
         fill="none"
         stroke="#002346"
         stroke-linecap="round"
         stroke-linejoin="round"
         id="line132" />
      <line
         x1="346.72"
         y1="363.97"
         x2="387.62"
         y2="363.97"
         fill="none"
         stroke="#002346"
         stroke-linecap="round"
         stroke-linejoin="round"
         id="line133" />
      <line
         x1="346.72"
         y1="371.97"
         x2="391.62"
         y2="371.97"
         fill="none"
         stroke="#002346"
         stroke-linecap="round"
         stroke-linejoin="round"
         id="line134" />
      <line
         x1="346.72"
         y1="377.97"
         x2="409.62"
         y2="377.97"
         fill="none"
         stroke="#002346"
         stroke-linecap="round"
         stroke-linejoin="round"
         id="line135" />
      <line
         x1="346.72"
         y1="385.97"
         x2="403.62"
         y2="385.97"
         fill="none"
         stroke="#002346"
         stroke-linecap="round"
         stroke-linejoin="round"
         id="line136" />
    </g>
    <line
       x1="466.52"
       y1="216.89"
       x2="564.97"
       y2="216.89"
       fill="none"
       stroke="#002346"
       stroke-linecap="round"
       stroke-linejoin="round"
       id="line137" />
    <line
       x1="479.52"
       y1="226.61"
       x2="564.97"
       y2="226.61"
       fill="none"
       stroke="#002346"
       stroke-linecap="round"
       stroke-linejoin="round"
       id="line138" />
    <line
       x1="469.52"
       y1="236.32"
       x2="549.97"
       y2="236.32"
       fill="none"
       stroke="#002346"
       stroke-linecap="round"
       stroke-linejoin="round"
       id="line139" />
    <line
       x1="468.52"
       y1="246.04"
       x2="573.97"
       y2="246.04"
       fill="none"
       stroke="#002346"
       stroke-linecap="round"
       stroke-linejoin="round"
       id="line140" />
    <line
       x1="468.52"
       y1="255.75"
       x2="573.97"
       y2="255.75"
       fill="none"
       stroke="#002346"
       stroke-linecap="round"
       stroke-linejoin="round"
       id="line141" />
    <line
       x1="502.52"
       y1="265.46"
       x2="573.97"
       y2="265.46"
       fill="none"
       stroke="#002346"
       stroke-linecap="round"
       stroke-linejoin="round"
       id="line142" />
    <line
       x1="502.52"
       y1="275.18"
       x2="573.97"
       y2="275.18"
       fill="none"
       stroke="#002346"
       stroke-linecap="round"
       stroke-linejoin="round"
       id="line143" />
    <line
       x1="502.52"
       y1="284.89"
       x2="573.97"
       y2="284.89"
       fill="none"
       stroke="#002346"
       stroke-linecap="round"
       stroke-linejoin="round"
       id="line144" />
    <line
       x1="474.94"
       y1="309.22"
       x2="672.38"
       y2="309.22"
       fill="none"
       stroke="#002346"
       stroke-linecap="round"
       stroke-linejoin="round"
       id="line145" />
    <line
       x1="474.94"
       y1="328.56"
       x2="672.38"
       y2="328.56"
       fill="none"
       stroke="#002346"
       stroke-linecap="round"
       stroke-linejoin="round"
       id="line146" />
    <line
       x1="474.94"
       y1="347.89"
       x2="672.38"
       y2="347.89"
       fill="none"
       stroke="#002346"
       stroke-linecap="round"
       stroke-linejoin="round"
       id="line147" />
    <line
       x1="474.94"
       y1="367.22"
       x2="672.38"
       y2="367.22"
       fill="none"
       stroke="#002346"
       stroke-linecap="round"
       stroke-linejoin="round"
       id="line148" />
  </g>
  <g
     id="g173">
    <rect
       x="627.41"
       y="359.44"
       width="147.35"
       height="138.59"
       fill="#ffffff"
       stroke="#002346"
       stroke-miterlimit="10"
       id="rect148" />
    <path
       d="M642.27,372.7c3.88,0,3.88-6.03,0-6.03s-3.88,6.03,0,6.03h0Zm0,8.76c3.88,0,3.88-6.03,0-6.03s-3.88,6.03,0,6.03h0Zm0,9.09c3.88,0,3.88-6.03,0-6.03s-3.88,6.03,0,6.03h0Zm0,10.52c3.88,0,3.88-6.03,0-6.03s-3.88,6.03,0,6.03h0Zm0,9.64c3.88,0,3.88-6.03,0-6.03s-3.88,6.03,0,6.03h0Zm0,10.52c3.88,0,3.88-6.03,0-6.03s-3.88,6.03,0,6.03h0Zm0,9.64c3.88,0,3.88-6.03,0-6.03s-3.88,6.03,0,6.03h0Zm0,9.64c3.88,0,3.88-6.03,0-6.03s-3.88,6.03,0,6.03h0Zm0,9.64c3.88,0,3.88-6.03,0-6.03s-3.88,6.03,0,6.03h0Zm0,8.76c3.88,0,3.88-6.03,0-6.03s-3.88,6.03,0,6.03h0Zm0,8.76c3.88,0,3.88-6.03,0-6.03s-3.88,6.03,0,6.03h0Zm0,8.76c3.88,0,3.88-6.03,0-6.03s-3.88,6.03,0,6.03h0Zm0,8.22c3.88,0,3.88-6.03,0-6.03s-3.88,6.03,0,6.03h0Zm0,8.11c3.88,0,3.88-6.03,0-6.03s-3.88,6.03,0,6.03h0Z"
       fill="#00dab1ff"
       stroke="#002346"
       stroke-miterlimit="10"
       id="path148" />
    <g
       id="g155">
      <rect
         x="689.31"
         y="436.68"
         width="4.93"
         height="6.57"
         fill="#fff"
         stroke="#002346"
         stroke-linecap="round"
         stroke-linejoin="round"
         id="rect149" />
      <rect
         x="698.08"
         y="436.68"
         width="4.93"
         height="6.57"
         fill="#fff"
         stroke="#002346"
         stroke-linecap="round"
         stroke-linejoin="round"
         id="rect150" />
      <rect
         x="705.74"
         y="436.68"
         width="4.93"
         height="6.57"
         fill="#fff"
         stroke="#002346"
         stroke-linecap="round"
         stroke-linejoin="round"
         id="rect151" />
      <rect
         x="713.41"
         y="436.68"
         width="4.93"
         height="6.57"
         fill="#fff"
         stroke="#002346"
         stroke-linecap="round"
         stroke-linejoin="round"
         id="rect152" />
      <rect
         x="721.63"
         y="436.68"
         width="4.93"
         height="6.57"
         fill="#fff"
         stroke="#002346"
         stroke-linecap="round"
         stroke-linejoin="round"
         id="rect153" />
      <rect
         x="730.4"
         y="436.68"
         width="4.93"
         height="6.57"
         fill="#fff"
         stroke="#002346"
         stroke-linecap="round"
         stroke-linejoin="round"
         id="rect154" />
      <rect
         x="738.06"
         y="436.68"
         width="4.93"
         height="6.57"
         fill="#fff"
         stroke="#002346"
         stroke-linecap="round"
         stroke-linejoin="round"
         id="rect155" />
    </g>
    <g
       id="g164">
      <rect
         x="724.92"
         y="471.19"
         width="4.93"
         height="6.57"
         fill="#00dab1ff"
         stroke="#002346"
         stroke-miterlimit="10"
         id="rect156" />
      <rect
         x="733.68"
         y="471.19"
         width="4.93"
         height="6.57"
         fill="#00dab1ff"
         stroke="#002346"
         stroke-miterlimit="10"
         id="rect157" />
      <rect
         x="741.35"
         y="471.19"
         width="4.93"
         height="6.57"
         fill="#00dab1ff"
         stroke="#002346"
         stroke-miterlimit="10"
         id="rect158" />
      <rect
         x="667.95"
         y="469.54"
         width="4.93"
         height="6.57"
         fill="#fff"
         stroke="#002346"
         stroke-linecap="round"
         stroke-linejoin="round"
         id="rect159" />
      <rect
         x="676.16"
         y="469.54"
         width="4.93"
         height="6.57"
         fill="#fff"
         stroke="#002346"
         stroke-linecap="round"
         stroke-linejoin="round"
         id="rect160" />
      <rect
         x="684.38"
         y="469.54"
         width="4.93"
         height="6.57"
         fill="#fff"
         stroke="#002346"
         stroke-linecap="round"
         stroke-linejoin="round"
         id="rect161" />
      <rect
         x="665.21"
         y="446.54"
         width="4.93"
         height="6.57"
         fill="#fff"
         stroke="#002346"
         stroke-linecap="round"
         stroke-linejoin="round"
         id="rect162" />
      <rect
         x="673.97"
         y="446.54"
         width="4.93"
         height="6.57"
         fill="#fff"
         stroke="#002346"
         stroke-linecap="round"
         stroke-linejoin="round"
         id="rect163" />
      <rect
         x="681.64"
         y="446.54"
         width="4.93"
         height="6.57"
         fill="#fff"
         stroke="#002346"
         stroke-linecap="round"
         stroke-linejoin="round"
         id="rect164" />
    </g>
    <line
       x1="654.25"
       y1="367.16"
       x2="713.37"
       y2="367.16"
       fill="none"
       stroke="#002346"
       stroke-linecap="round"
       stroke-linejoin="round"
       id="line164" />
    <line
       x1="680.25"
       y1="373.16"
       x2="727.37"
       y2="373.16"
       fill="none"
       stroke="#002346"
       stroke-linecap="round"
       stroke-linejoin="round"
       id="line165" />
    <line
       x1="656.25"
       y1="379.16"
       x2="707.37"
       y2="379.16"
       fill="none"
       stroke="#002346"
       stroke-linecap="round"
       stroke-linejoin="round"
       id="line166" />
    <line
       x1="683.25"
       y1="385.16"
       x2="719.37"
       y2="385.16"
       fill="none"
       stroke="#002346"
       stroke-linecap="round"
       stroke-linejoin="round"
       id="line167" />
    <line
       x1="659.25"
       y1="407.16"
       x2="705.37"
       y2="407.16"
       fill="none"
       stroke="#002346"
       stroke-linecap="round"
       stroke-linejoin="round"
       id="line168" />
    <line
       x1="672.25"
       y1="414.16"
       x2="724.37"
       y2="414.16"
       fill="none"
       stroke="#002346"
       stroke-linecap="round"
       stroke-linejoin="round"
       id="line169" />
    <line
       x1="662.25"
       y1="422.16"
       x2="738.37"
       y2="422.16"
       fill="none"
       stroke="#002346"
       stroke-linecap="round"
       stroke-linejoin="round"
       id="line170" />
    <line
       x1="661.25"
       y1="430.16"
       x2="720.37"
       y2="430.16"
       fill="none"
       stroke="#002346"
       stroke-linecap="round"
       stroke-linejoin="round"
       id="line171" />
    <line
       x1="659.25"
       y1="391.16"
       x2="728.37"
       y2="391.16"
       fill="none"
       stroke="#002346"
       stroke-linecap="round"
       stroke-linejoin="round"
       id="line172" />
    <line
       x1="671.25"
       y1="398.16"
       x2="740.37"
       y2="398.16"
       fill="none"
       stroke="#002346"
       stroke-linecap="round"
       stroke-linejoin="round"
       id="line173" />
  </g>
  <line
     x1="711.26"
     y1="296.52"
     x2="812.27"
     y2="296.52"
     fill="none"
     stroke="#002346"
     stroke-linecap="round"
     stroke-linejoin="round"
     id="line174" />
  <g
     id="g174"
     style="stroke:#e5e6e7;stroke-opacity:1">
    <polyline
       points="848.48 320.76 744.36 320.76 730.06 338.12"
       fill="none"
       stroke="#002346"
       stroke-linecap="round"
       stroke-linejoin="round"
       id="polyline174"
       style="stroke:#e5e6e7;stroke-opacity:1" />
    <circle
       cx="730.63"
       cy="338.12"
       r="3.65"
       fill="#00dab1ff"
       stroke="#002346"
       stroke-miterlimit="10"
       id="circle174"
       style="stroke:#e5e6e7;stroke-opacity:1" />
  </g>
  <g
     id="g175"
     style="stroke:#e5e6e7;stroke-opacity:1">
    <polyline
       points="262.36 120.97 366.48 120.97 380.77 138.33"
       fill="none"
       stroke="#002346"
       stroke-linecap="round"
       stroke-linejoin="round"
       id="polyline175"
       style="stroke:#e5e6e7;stroke-opacity:1" />
    <circle
       cx="380.2"
       cy="138.33"
       r="3.65"
       fill="#ffffff"
       stroke="#002346"
       stroke-miterlimit="10"
       id="circle175"
       style="stroke:#e5e6e7;stroke-opacity:1" />
  </g>
  <line
     x1="692.1"
     y1="450.05"
     x2="746.78"
     y2="450.05"
     fill="#fff"
     stroke="#002346"
     stroke-linecap="round"
     stroke-linejoin="round"
     id="line175" />
  <line
     x1="661.25"
     y1="461.49"
     x2="752.86"
     y2="461.49"
     fill="#fff"
     stroke="#002346"
     stroke-linecap="round"
     stroke-linejoin="round"
     id="line176" />
  <polyline
     points="312.27 159.61 203.25 159.61 203.25 311.88 195.41 311.88"
     fill="none"
     stroke="#002346"
     stroke-linecap="round"
     stroke-linejoin="round"
     id="polyline176"
     style="stroke:#e5e6e7;stroke-opacity:1" />
  <polyline
     points="111.62 395.98 111.62 373.76 122.31 373.76 122.31 342.77"
     fill="none"
     stroke="#002346"
     stroke-linecap="round"
     stroke-linejoin="round"
     id="polyline177"
     style="stroke:#e5e6e7;stroke-opacity:1" />
  <polyline
     points="111.62 488.98 111.62 522.45 199.83 522.45"
     fill="none"
     stroke="#002346"
     stroke-dasharray="0 11"
     stroke-linecap="round"
     stroke-linejoin="round"
     id="polyline178" />
  <polyline
     points="34.43 205.57 17.28 205.57 17.28 448.79 50.44 448.79"
     fill="none"
     stroke="#002346"
     stroke-dasharray="0 11"
     stroke-linecap="round"
     stroke-linejoin="round"
     id="polyline179" />
</svg>
