<?xml version="1.0" encoding="UTF-8" standalone="no"?>
<svg
   viewBox="0 0 448 512"
   version="1.1"
   id="svg1"
   sodipodi:docname="slack-brands-solid.svg"
   inkscape:version="1.3.2 (091e20e, 2023-11-25, custom)"
   xmlns:inkscape="http://www.inkscape.org/namespaces/inkscape"
   xmlns:sodipodi="http://sodipodi.sourceforge.net/DTD/sodipodi-0.dtd"
   xmlns="http://www.w3.org/2000/svg"
   xmlns:svg="http://www.w3.org/2000/svg">
  <defs
     id="defs1" />
  <sodipodi:namedview
     id="namedview1"
     pagecolor="#505050"
     bordercolor="#eeeeee"
     borderopacity="1"
     inkscape:showpageshadow="0"
     inkscape:pageopacity="0"
     inkscape:pagecheckerboard="0"
     inkscape:deskcolor="#505050"
     inkscape:zoom="1.5878906"
     inkscape:cx="224.19681"
     inkscape:cy="255.37024"
     inkscape:window-width="1920"
     inkscape:window-height="1009"
     inkscape:window-x="-8"
     inkscape:window-y="-8"
     inkscape:window-maximized="1"
     inkscape:current-layer="svg1" />
  <!--!Font Awesome Free 6.6.0 by @fontawesome - https://fontawesome.com License - https://fontawesome.com/license/free Copyright 2024 Fonticons, Inc.-->
  <path
     d="M94.1 315.1c0 25.9-21.2 47.1-47.1 47.1S0 341 0 315.1c0-25.9 21.2-47.1 47.1-47.1h47.1v47.1zm23.7 0c0-25.9 21.2-47.1 47.1-47.1s47.1 21.2 47.1 47.1v117.8c0 25.9-21.2 47.1-47.1 47.1s-47.1-21.2-47.1-47.1V315.1zm47.1-189c-25.9 0-47.1-21.2-47.1-47.1S139 32 164.9 32s47.1 21.2 47.1 47.1v47.1H164.9zm0 23.7c25.9 0 47.1 21.2 47.1 47.1s-21.2 47.1-47.1 47.1H47.1C21.2 244 0 222.8 0 196.9s21.2-47.1 47.1-47.1H164.9zm189 47.1c0-25.9 21.2-47.1 47.1-47.1 25.9 0 47.1 21.2 47.1 47.1s-21.2 47.1-47.1 47.1h-47.1V196.9zm-23.7 0c0 25.9-21.2 47.1-47.1 47.1-25.9 0-47.1-21.2-47.1-47.1V79.1c0-25.9 21.2-47.1 47.1-47.1 25.9 0 47.1 21.2 47.1 47.1V196.9zM283.1 385.9c25.9 0 47.1 21.2 47.1 47.1 0 25.9-21.2 47.1-47.1 47.1-25.9 0-47.1-21.2-47.1-47.1v-47.1h47.1zm0-23.7c-25.9 0-47.1-21.2-47.1-47.1 0-25.9 21.2-47.1 47.1-47.1h117.8c25.9 0 47.1 21.2 47.1 47.1 0 25.9-21.2 47.1-47.1 47.1H283.1z"
     id="path1"
     style="fill:#57befa;fill-opacity:1;stroke:#57befa;stroke-opacity:1" />
</svg>
